<?xml version="1.0" encoding="UTF-8" standalone="no"?>
<svg
   xmlns:dc="http://purl.org/dc/elements/1.1/"
   xmlns:cc="http://creativecommons.org/ns#"
   xmlns:rdf="http://www.w3.org/1999/02/22-rdf-syntax-ns#"
   xmlns:svg="http://www.w3.org/2000/svg"
   xmlns="http://www.w3.org/2000/svg"
   xmlns:sodipodi="http://sodipodi.sourceforge.net/DTD/sodipodi-0.dtd"
   xmlns:inkscape="http://www.inkscape.org/namespaces/inkscape"
   version="1.0"
   width="49.605465"
   height="66.87635"
   viewBox="0 0 39.684372 53.501079"
   preserveAspectRatio="xMidYMid meet"
   id="svg2"
   inkscape:version="0.48.4 r9939"
   sodipodi:docname="p.svg">
  <defs
     id="defs24" />
  <sodipodi:namedview
     pagecolor="#ffffff"
     bordercolor="#666666"
     borderopacity="1"
     objecttolerance="10"
     gridtolerance="10"
     guidetolerance="10"
     inkscape:pageopacity="0"
     inkscape:pageshadow="2"
     inkscape:window-width="1366"
     inkscape:window-height="744"
     id="namedview22"
     showgrid="false"
     inkscape:document-units="mm"
     units="mm"
     fit-margin-top="0"
     fit-margin-left="0"
     fit-margin-right="0"
     fit-margin-bottom="0"
     inkscape:zoom="9.3605589"
     inkscape:cx="24.802732"
     inkscape:cy="33.438174"
     inkscape:window-x="0"
     inkscape:window-y="24"
     inkscape:window-maximized="1"
     inkscape:current-layer="svg2" />
  <metadata
     id="metadata4">
Created by potrace 1.10, written by Peter Selinger 2001-2011
<rdf:RDF>
  <cc:Work
     rdf:about="">
    <dc:format>image/svg+xml</dc:format>
    <dc:type
       rdf:resource="http://purl.org/dc/dcmitype/StillImage" />
  </cc:Work>
</rdf:RDF>
</metadata>
  <g
     transform="matrix(0.00608656,0,0,-0.00608656,-137.49539,511.21039)"
     id="g6"
     style="fill:#000000;stroke:none">
    <path
       d="m 22619,83961 -29,-29 0,-4342 0,-4341 25,-24 24,-25 3214,0 3214,0 21,23 22,23 0,4341 c 0,2388 -3,4348 -6,4357 -19,49 162,46 -3259,46 l -3197,0 -29,-29 z m 6321,-4371 0,-4220 -3090,0 -3090,0 0,4220 0,4220 3090,0 3090,0 0,-4220 z"
       id="path8"
       inkscape:connector-curvature="0" />
    <path
       d="m 27514,83706 c -486,-111 -722,-653 -472,-1081 51,-87 172,-207 258,-258 212,-123 483,-129 704,-15 123,64 247,191 310,318 55,112 76,201 76,325 0,122 -21,211 -76,323 -38,79 -60,109 -132,182 -97,97 -179,148 -300,187 -96,32 -274,40 -368,19 z m 269,-171 c 264,-56 451,-303 434,-575 -30,-476 -604,-692 -943,-353 -97,97 -164,255 -164,388 0,133 68,293 167,390 135,134 321,189 506,150 z"
       id="path10"
       inkscape:connector-curvature="0" />
    <path
       d="m 23013,83563 -23,-22 0,-685 0,-685 -41,-23 c -23,-13 -51,-40 -65,-64 l -24,-41 0,-2736 0,-2737 -25,0 -25,0 2,-452 3,-453 225,0 225,0 3,453 2,452 -25,0 -25,0 0,2620 0,2620 1023,0 1022,0 98,-98 97,-97 0,-447 c 0,-502 -2,-487 69,-473 20,4 75,9 124,12 l 87,4 0,-115 0,-116 -55,0 -55,0 0,-680 0,-680 55,0 55,0 0,-115 0,-115 -70,0 c -40,0 -86,6 -107,15 -47,20 -66,19 -86,-3 -15,-17 -17,-70 -17,-556 l 0,-538 -138,-166 c -77,-92 -144,-182 -150,-201 -8,-24 -12,-161 -12,-452 0,-412 0,-419 -20,-419 -20,0 -20,-7 -20,-455 l 0,-455 225,0 225,0 0,170 0,170 98,0 c 136,0 132,7 132,-202 0,-147 2,-167 18,-181 17,-15 58,-17 389,-17 346,0 371,1 386,18 16,17 17,308 17,3979 0,3335 -2,3962 -14,3972 -10,8 -483,12 -1787,14 l -1774,2 -22,-22 z m 3289,-2872 c 53,-23 90,-62 117,-121 19,-42 21,-65 21,-329 0,-251 -2,-287 -17,-303 -13,-15 -32,-18 -115,-18 l -98,0 0,280 0,280 -55,0 -55,0 0,115 0,115 79,0 c 56,0 92,-6 123,-19 z m 117,-1025 c 22,-23 22,-27 20,-297 -2,-317 -6,-343 -71,-405 -56,-53 -111,-74 -198,-74 l -70,0 0,115 0,115 55,0 55,0 0,285 0,285 93,0 c 85,0 95,-2 116,-24 z m -767,-2882 c 56,-22 106,-69 129,-122 16,-37 19,-69 19,-222 0,-218 5,-210 -137,-210 l -93,0 0,170 c 0,163 -1,170 -20,170 -19,0 -20,7 -20,115 l 0,115 40,0 c 22,0 59,-7 82,-16 z m -2521,-570 c 102,-98 6,-266 -131,-225 -88,26 -123,141 -63,211 34,41 58,51 116,46 36,-2 55,-10 78,-32 z m 2285,17 c 35,-21 64,-75 64,-118 0,-38 -32,-89 -72,-114 -84,-52 -198,17 -198,121 0,100 119,164 206,111 z"
       id="path12"
       inkscape:connector-curvature="0" />
    <path
       d="m 23467,81562 c -15,-17 -17,-60 -17,-408 0,-312 3,-394 14,-409 12,-17 30,-18 252,-16 231,2 240,2 258,-18 11,-12 24,-21 30,-21 23,0 84,-61 105,-105 21,-44 21,-51 21,-782 0,-697 -1,-740 -19,-778 -10,-22 -33,-53 -50,-69 l -31,-30 0,-113 c 0,-101 2,-113 19,-123 11,-6 87,-10 174,-10 166,0 207,-9 257,-55 42,-38 64,-39 102,-7 18,16 42,32 54,36 25,8 23,32 50,-799 14,-447 18,-505 35,-544 13,-30 19,-67 19,-118 l 0,-74 143,3 142,3 3,75 c 1,41 9,89 17,107 20,41 19,137 -5,813 -11,336 -15,549 -9,555 9,9 54,0 115,-26 28,-11 36,-10 58,4 25,17 26,20 26,126 0,92 -3,110 -18,124 -23,21 -49,21 -97,1 -20,-8 -51,-14 -69,-12 l -31,3 -3,112 c -3,109 -2,112 20,115 l 23,3 3,677 2,677 -87,3 -88,3 -3,89 c -2,68 1,94 13,113 16,24 19,24 123,20 59,-3 122,-8 140,-12 25,-6 38,-3 52,10 19,17 20,33 20,420 l 0,401 -28,27 -28,27 -845,0 c -807,0 -847,-1 -862,-18 z m 1165,-869 c 15,-13 18,-32 18,-115 l 0,-98 -85,0 -85,0 0,-280 0,-280 -97,0 c -143,0 -133,-25 -133,321 0,260 2,291 19,331 22,51 72,101 121,122 51,22 217,22 242,-1 z m -152,-1288 0,-285 79,0 78,0 7,-37 c 3,-21 6,-66 6,-100 0,-81 -15,-93 -121,-93 -130,0 -213,43 -255,134 -23,50 -24,56 -24,343 0,348 -11,323 137,323 l 93,0 0,-285 z"
       id="path14"
       inkscape:connector-curvature="0" />
    <path
       d="m 23330,79800 0,-680 50,0 50,0 0,-1275 c 0,-1268 0,-1275 -20,-1275 -20,0 -20,-7 -20,-455 l 0,-455 225,0 225,0 0,455 c 0,448 0,455 -20,455 -20,0 -20,7 -20,720 l 0,720 125,0 125,0 0,-40 0,-40 145,0 145,0 0,74 c 0,43 6,89 15,109 8,20 15,55 15,77 0,22 -7,57 -15,77 -9,20 -15,66 -15,109 l 0,74 -145,0 -145,0 0,-40 0,-40 -125,0 -125,0 0,375 0,375 50,0 50,0 0,680 0,680 -285,0 -285,0 0,-680 z m 351,-3565 c 62,-32 86,-112 54,-179 -18,-38 -80,-76 -121,-76 -62,0 -134,72 -134,133 0,43 29,97 64,118 38,23 97,24 137,4 z"
       id="path16"
       inkscape:connector-curvature="0" />
    <path
       d="m 27572,79180 c -154,-21 -313,-101 -419,-211 -69,-71 -84,-92 -126,-169 -165,-303 -84,-694 187,-907 297,-234 699,-210 966,57 137,138 199,281 208,481 5,132 -14,232 -67,342 -132,277 -446,448 -749,407 z m 231,-185 c 96,-25 176,-72 253,-149 140,-140 193,-326 149,-515 -41,-174 -181,-331 -350,-393 -83,-30 -250,-37 -331,-13 -101,29 -175,73 -249,149 -218,221 -218,553 0,771 113,113 229,163 385,164 47,1 112,-6 143,-14 z"
       id="path18"
       inkscape:connector-curvature="0" />
    <path
       d="m 24050,77570 c 0,-44 -6,-82 -15,-100 -8,-16 -31,-108 -52,-205 -32,-158 -35,-180 -24,-218 11,-35 58,-87 297,-327 l 284,-285 0,-388 0,-387 225,0 225,0 0,455 0,455 -38,0 c -35,0 -50,13 -325,288 -319,319 -299,289 -272,412 18,83 18,158 0,190 -9,16 -14,54 -15,103 l 0,77 -145,0 -145,0 0,-70 z m 812,-1358 c 41,-40 50,-120 20,-168 -21,-32 -76,-64 -111,-64 -61,0 -125,54 -136,114 -9,45 20,110 58,136 49,32 128,24 169,-18 z"
       id="path20"
       inkscape:connector-curvature="0" />
  </g>
</svg>
