<?xml version="1.0" standalone="no"?>
<!DOCTYPE svg PUBLIC "-//W3C//DTD SVG 1.1//EN" 
"http://www.w3.org/Graphics/SVG/1.1/DTD/svg11.dtd"> 
<svg
  xmlns="http://www.w3.org/2000/svg"
  version="1.1"
  width="11.7in" height="8.267in" viewBox="0 0 117000 82670 "
>
  <title>SVG Picture created as proximity-brd.svg </title>
  <desc>Picture generated by wxSVG v0101 </desc>
  <g style="fill:black; stroke:black; stroke-width:1">
</g>
<g style="fill:#000000; fill-opacity:0.0; 
  stroke:#FFFF00; stroke-linecap:round; stroke-linejoin:round; stroke-opacity:1.0; stroke-opacity:1.0; stroke-width:150" 
   transform="translate(0 0) scale(1 1)">
<path d="M25197 17323 L25197 7087" /> 
<path d="M19685 17323 L19685 7480" /> 
<path d="M20079 7087 L25197 7087" /> 
<path d="M19685 7480 L20078 7087" /> 
<path d="M19685 17323 L25197 17323" /> 
</g>
<g style="fill:#C0C0C0; fill-opacity:1.0; 
  stroke:#C0C0C0; stroke-linecap:round; stroke-linejoin:round; stroke-opacity:1.0; stroke-opacity:1.0; stroke-width:0" 
   transform="translate(0 0) scale(1 1)">
<ellipse cx="24016" cy="14567" rx="689" ry="689"  /> 
<ellipse cx="24016" cy="10630" rx="689" ry="689"  /> 
</g>
<g style="fill:#C0C0C0; fill-opacity:1.0; 
  stroke:#A00000; stroke-linecap:round; stroke-linejoin:round; stroke-opacity:1.0; stroke-opacity:1.0; stroke-width:315" 
   transform="translate(0 0) scale(1 1)">
<path d="M23538 12795 L23538 11727" /> 
<path d="M23538 11727 L23031 11220" /> 
<path d="M23031 11220 L23031 9859" /> 
<path d="M23031 9859 L24425 8465" /> 
<path d="M22000 16600 L22000 15205" /> 
<path d="M22000 15205 L23538 13667" /> 
<path d="M23538 13667 L23538 12795" /> 
<path d="M20000 9330 L21850 7480" /> 
<path d="M20000 16600 L20000 9330" /> 
<path d="M23440 7480 L24425 8465" /> 
<path d="M21850 7480 L23440 7480" /> 
<path d="M21600 14800 L21600 10290" /> 
<path d="M21600 10290 L23425 8465" /> 
<path d="M21600 15500 L21600 14800" /> 
<path d="M20950 15750 L21000 15500" /> 
<path d="M21500 16600 L21500 16300" /> 
<path d="M21500 16300 L20950 15750" /> 
<path d="M20500 14173 L20500 14100" /> 
<path d="M20500 14300 L20500 14173" /> 
<path d="M21000 14800 L20500 14800" /> 
<path d="M20500 10390 L22425 8465" /> 
<path d="M20500 14800 L20500 14300" /> 
<path d="M20500 16600 L20500 14100" /> 
<path d="M20500 14173 L20500 10390" /> 
</g>
<g style="fill:#C0C0C0; fill-opacity:1.0; 
  stroke:#A00000; stroke-linecap:round; stroke-linejoin:round; stroke-opacity:1.0; stroke-opacity:1.0; stroke-width:100" 
   transform="translate(0 0) scale(1 1)">
<path d="M24872 16998 L24872 16998" /> 
<path d="M22446 16998 L24872 16998" /> 
<path d="M22446 16944 L22446 16998" /> 
<path d="M22447 16712 L22446 16944" /> 
<path d="M22447 16488 L22447 16712" /> 
<path d="M22446 16256 L22447 16488" /> 
<path d="M22446 16157 L22446 16256" /> 
<path d="M22408 16066 L22446 16157" /> 
<path d="M22338 15996 L22408 16066" /> 
<path d="M22246 15958 L22338 15996" /> 
<path d="M22112 15957 L22246 15958" /> 
<path d="M22050 16019 L22112 15957" /> 
<path d="M22050 16550 L22050 16019" /> 
<path d="M22385 16550 L22050 16550" /> 
<path d="M22447 16488 L22385 16550" /> 
<path d="M22447 16712 L22447 16488" /> 
<path d="M22385 16650 L22447 16712" /> 
<path d="M22100 16650 L22385 16650" /> 
<path d="M22050 16650 L22100 16650" /> 
<path d="M21950 16650 L22050 16650" /> 
<path d="M21950 16550 L21950 16650" /> 
<path d="M21950 16500 L21950 16550" /> 
<path d="M21950 16019 L21950 16500" /> 
<path d="M21900 15969 L21950 16019" /> 
<path d="M21900 15902 L21900 15969" /> 
<path d="M21936 15866 L21900 15902" /> 
<path d="M21974 15775 L21936 15866" /> 
<path d="M21974 15676 L21974 15775" /> 
<path d="M21974 15659 L21974 15676" /> 
<path d="M21976 15656 L21974 15659" /> 
<path d="M22007 15500 L21976 15656" /> 
<path d="M22007 14800 L22007 15500" /> 
<path d="M22007 14087 L22007 14800" /> 
<path d="M22749 13345 L22007 14087" /> 
<path d="M22781 13359 L22749 13345" /> 
<path d="M23426 13360 L22781 13359" /> 
<path d="M23488 13298 L23426 13360" /> 
<path d="M23488 12895 L23488 13298" /> 
<path d="M23488 12845 L23488 12895" /> 
<path d="M23488 12745 L23488 12845" /> 
<path d="M23488 12695 L23488 12745" /> 
<path d="M23488 12292 L23488 12695" /> 
<path d="M23426 12230 L23488 12292" /> 
<path d="M22885 12230 L23426 12230" /> 
<path d="M22885 10060 L22885 12230" /> 
<path d="M23976 8968 L22885 10060" /> 
<path d="M23984 8976 L23976 8968" /> 
<path d="M24076 9014 L23984 8976" /> 
<path d="M24313 9015 L24076 9014" /> 
<path d="M24375 8953 L24313 9015" /> 
<path d="M24375 8570 L24375 8953" /> 
<path d="M24459 8486 L24375 8570" /> 
<path d="M24459 8218 L24459 8486" /> 
<path d="M24375 8218 L24459 8218" /> 
<path d="M24375 7977 L24375 8218" /> 
<path d="M24313 7915 L24375 7977" /> 
<path d="M24076 7916 L24313 7915" /> 
<path d="M23984 7954 L24076 7916" /> 
<path d="M23914 8024 L23984 7954" /> 
<path d="M23893 8074 L23914 8024" /> 
<path d="M23475 7656 L23893 8074" /> 
<path d="M23475 7430 L23475 7656" /> 
<path d="M22588 7430 L23475 7430" /> 
<path d="M22588 7824 L22588 7430" /> 
<path d="M22223 7824 L22588 7824" /> 
<path d="M21800 8247 L22223 7824" /> 
<path d="M21800 8514 L21800 8247" /> 
<path d="M20212 10102 L21800 8514" /> 
<path d="M20124 10234 L20212 10102" /> 
<path d="M20103 10337 L20124 10234" /> 
<path d="M20010 10430 L20103 10337" /> 
<path d="M20010 7620 L20010 10430" /> 
<path d="M20218 7412 L20010 7620" /> 
<path d="M24872 7412 L20218 7412" /> 
<path d="M24872 7960 L24872 7412" /> 
<path d="M24866 7954 L24872 7960" /> 
<path d="M24774 7916 L24866 7954" /> 
<path d="M24537 7915 L24774 7916" /> 
<path d="M24475 7977 L24537 7915" /> 
<path d="M24475 8365 L24475 7977" /> 
<path d="M24475 8415 L24475 8365" /> 
<path d="M24475 8515 L24475 8415" /> 
<path d="M24475 8565 L24475 8515" /> 
<path d="M24475 8953 L24475 8565" /> 
<path d="M24537 9015 L24475 8953" /> 
<path d="M24774 9014 L24537 9015" /> 
<path d="M24866 8976 L24774 9014" /> 
<path d="M24872 8970 L24866 8976" /> 
<path d="M24872 10243 L24872 8970" /> 
<path d="M24812 10099 L24872 10243" /> 
<path d="M24548 9835 L24812 10099" /> 
<path d="M24203 9691 L24548 9835" /> 
<path d="M23830 9691 L24203 9691" /> 
<path d="M23485 9834 L23830 9691" /> 
<path d="M23221 10098 L23485 9834" /> 
<path d="M23077 10443 L23221 10098" /> 
<path d="M23077 10816 L23077 10443" /> 
<path d="M23220 11161 L23077 10816" /> 
<path d="M23484 11425 L23220 11161" /> 
<path d="M23829 11569 L23484 11425" /> 
<path d="M24202 11569 L23829 11569" /> 
<path d="M24547 11426 L24202 11569" /> 
<path d="M24811 11162 L24547 11426" /> 
<path d="M24872 11015 L24811 11162" /> 
<path d="M24872 14180 L24872 11015" /> 
<path d="M24812 14036 L24872 14180" /> 
<path d="M24548 13772 L24812 14036" /> 
<path d="M24496 13750 L24548 13772" /> 
<path d="M24496 12907 L24496 13750" /> 
<path d="M24496 12683 L24496 12907" /> 
<path d="M24495 12529 L24496 12683" /> 
<path d="M24495 12430 L24495 12529" /> 
<path d="M24457 12339 L24495 12430" /> 
<path d="M24387 12269 L24457 12339" /> 
<path d="M24295 12231 L24387 12269" /> 
<path d="M23650 12230 L24295 12231" /> 
<path d="M23588 12292 L23650 12230" /> 
<path d="M23588 12745 L23588 12292" /> 
<path d="M24434 12745 L23588 12745" /> 
<path d="M24496 12683 L24434 12745" /> 
<path d="M24496 12907 L24496 12683" /> 
<path d="M24434 12845 L24496 12907" /> 
<path d="M23588 12845 L24434 12845" /> 
<path d="M23588 13298 L23588 12845" /> 
<path d="M23650 13360 L23588 13298" /> 
<path d="M24295 13359 L23650 13360" /> 
<path d="M24387 13321 L24295 13359" /> 
<path d="M24457 13251 L24387 13321" /> 
<path d="M24495 13160 L24457 13251" /> 
<path d="M24495 13061 L24495 13160" /> 
<path d="M24496 12907 L24495 13061" /> 
<path d="M24496 13750 L24496 12907" /> 
<path d="M24203 13628 L24496 13750" /> 
<path d="M23830 13628 L24203 13628" /> 
<path d="M23485 13771 L23830 13628" /> 
<path d="M23221 14035 L23485 13771" /> 
<path d="M23077 14380 L23221 14035" /> 
<path d="M23077 14753 L23077 14380" /> 
<path d="M23220 15098 L23077 14753" /> 
<path d="M23484 15362 L23220 15098" /> 
<path d="M23829 15506 L23484 15362" /> 
<path d="M24202 15506 L23829 15506" /> 
<path d="M24547 15363 L24202 15506" /> 
<path d="M24811 15099 L24547 15363" /> 
<path d="M24872 14952 L24811 15099" /> 
<path d="M24872 16998 L24872 14952" /> 
</g>
<g style="fill:#A00000; fill-opacity:1.0; 
  stroke:#A00000; stroke-linecap:round; stroke-linejoin:round; stroke-opacity:1.0; stroke-opacity:1.0; stroke-width:0" 
   transform="translate(0 0) scale(1 1)">
<polygon style="fill-rule:evenodd; " 
points="22447,16488
22446,16256
22446,16157
22408,16066
22338,15996
22246,15958
22112,15957
22050,16019
22050,16550
22385,16550
22447,16488
22447,16712
22385,16650
22100,16650
22050,16650
21950,16650
21950,16550
21950,16500
21950,16019
21900,15969
21900,15902
21936,15866
21974,15775
21974,15676
21974,15659
21976,15656
22007,15500
22007,14800
22007,14087
22749,13345
22781,13359
23426,13360
23488,13298
23488,12895
23488,12845
23488,12745
23488,12695
23488,12292
23426,12230
22885,12230
22885,10060
23976,8968
23984,8976
24076,9014
24313,9015
24375,8953
24375,8570
24459,8486
24459,8218
24375,8218
24375,7977
24313,7915
24076,7916
23984,7954
23914,8024
23893,8074
23475,7656
23475,7430
22588,7430
22588,7824
22223,7824
21800,8247
21800,8514
20212,10102
20124,10234
20103,10337
20010,10430
20010,7620
20218,7412
24872,7412
24872,7960
24866,7954
24774,7916
24537,7915
24475,7977
24475,8365
24475,8415
24475,8515
24475,8565
24475,8953
24537,9015
24774,9014
24866,8976
24872,8970
24872,10243
24812,10099
24548,9835
24203,9691
23830,9691
23485,9834
23221,10098
23077,10443
23077,10816
23220,11161
23484,11425
23829,11569
24202,11569
24547,11426
24811,11162
24872,11015
24872,14180
24812,14036
24548,13772
24496,13750
24496,12907
24496,12683
24495,12529
24495,12430
24457,12339
24387,12269
24295,12231
23650,12230
23588,12292
23588,12745
24434,12745
24496,12683
24496,12907
24434,12845
23588,12845
23588,13298
23650,13360
24295,13359
24387,13321
24457,13251
24495,13160
24495,13061
24496,12907
24496,13750
24203,13628
23830,13628
23485,13771
23221,14035
23077,14380
23077,14753
23220,15098
23484,15362
23829,15506
24202,15506
24547,15363
24811,15099
24872,14952
24872,16998
24872,16998
22446,16998
22446,16944
22447,16712
" /> 
</g>
<g style="fill:#A00000; fill-opacity:1.0; 
  stroke:#A00000; stroke-linecap:round; stroke-linejoin:round; stroke-opacity:1.0; stroke-opacity:1.0; stroke-width:100" 
   transform="translate(0 0) scale(1 1)">
<path d="M23496 8465 L23496 8465" /> 
<path d="M23425 8536 L23496 8465" /> 
<path d="M23117 8843 L23425 8536" /> 
<path d="M23144 8937 L23117 8843" /> 
<path d="M23241 8971 L23144 8937" /> 
<path d="M22391 9822 L23241 8971" /> 
<path d="M22391 12230 L22391 9822" /> 
<path d="M21850 12230 L22391 12230" /> 
<path d="M21788 12292 L21850 12230" /> 
<path d="M21788 12695 L21788 12292" /> 
<path d="M21788 12745 L21788 12695" /> 
<path d="M21788 12845 L21788 12745" /> 
<path d="M21788 12895 L21788 12845" /> 
<path d="M21788 13298 L21788 12895" /> 
<path d="M21850 13360 L21788 13298" /> 
<path d="M22199 13359 L21850 13360" /> 
<path d="M21407 14152 L22199 13359" /> 
<path d="M21407 14320 L21407 14152" /> 
<path d="M20916 14320 L21407 14320" /> 
<path d="M20916 13332 L20916 14320" /> 
<path d="M20981 13359 L20916 13332" /> 
<path d="M21626 13360 L20981 13359" /> 
<path d="M21688 13298 L21626 13360" /> 
<path d="M21688 12895 L21688 13298" /> 
<path d="M21688 12845 L21688 12895" /> 
<path d="M21688 12745 L21688 12845" /> 
<path d="M21688 12695 L21688 12745" /> 
<path d="M21688 12292 L21688 12695" /> 
<path d="M21626 12230 L21688 12292" /> 
<path d="M20981 12231 L21626 12230" /> 
<path d="M20916 12257 L20981 12231" /> 
<path d="M20916 10848 L20916 12257" /> 
<path d="M23002 8760 L20916 10848" /> 
<path d="M23047 8773 L23002 8760" /> 
<path d="M23319 8500 L23047 8773" /> 
<path d="M23354 8465 L23319 8500" /> 
<path d="M23425 8394 L23354 8465" /> 
<path d="M23496 8465 L23425 8394" /> 
</g>
<g style="fill:#A00000; fill-opacity:1.0; 
  stroke:#A00000; stroke-linecap:round; stroke-linejoin:round; stroke-opacity:1.0; stroke-opacity:1.0; stroke-width:0" 
   transform="translate(0 0) scale(1 1)">
<polygon style="fill-rule:evenodd; " 
points="23241,8971
22391,9822
22391,12230
21850,12230
21788,12292
21788,12695
21788,12745
21788,12845
21788,12895
21788,13298
21850,13360
22199,13359
21407,14152
21407,14320
20916,14320
20916,13332
20981,13359
21626,13360
21688,13298
21688,12895
21688,12845
21688,12745
21688,12695
21688,12292
21626,12230
20981,12231
20916,12257
20916,10848
23002,8760
23047,8773
23319,8500
23354,8465
23425,8394
23496,8465
23496,8465
23425,8536
23117,8843
23144,8937
" /> 
</g>
<g style="fill:#A00000; fill-opacity:1.0; 
  stroke:#A00000; stroke-linecap:round; stroke-linejoin:round; stroke-opacity:1.0; stroke-opacity:1.0; stroke-width:0" 
   transform="translate(0 0) scale(1 1)">
<polygon style="fill-rule:evenodd; " 
points="20875,15025
20875,14575
21125,14575
21125,15025
" /> 
<polygon style="fill-rule:evenodd; " 
points="21475,15025
21475,14575
21725,14575
21725,15025
" /> 
<polygon style="fill-rule:evenodd; " 
points="20875,15725
20875,15275
21125,15275
21125,15725
" /> 
<polygon style="fill-rule:evenodd; " 
points="21475,15725
21475,15275
21725,15275
21725,15725
" /> 
</g>
<g style="fill:#808000; fill-opacity:1.0; 
  stroke:#808000; stroke-linecap:round; stroke-linejoin:round; stroke-opacity:1.0; stroke-opacity:1.0; stroke-width:0" 
   transform="translate(0 0) scale(1 1)">
<polygon style="fill-rule:evenodd; " 
points="22197,16207
22197,16993
21803,16993
21803,16207
" /> 
</g>
<g style="fill:#FFFFFF; fill-opacity:1.0; 
  stroke:#808000; stroke-linecap:round; stroke-linejoin:round; stroke-opacity:1.0; stroke-opacity:1.0; stroke-width:0" 
   transform="translate(0 0) scale(1 1)">
<ellipse cx="22000" cy="16600" rx="118" ry="118"  /> 
</g>
<g style="fill:#808000; fill-opacity:1.0; 
  stroke:#808000; stroke-linecap:round; stroke-linejoin:round; stroke-opacity:1.0; stroke-opacity:1.0; stroke-width:0" 
   transform="translate(0 0) scale(1 1)">
<polygon style="fill-rule:evenodd; " 
points="21697,16207
21697,16993
21303,16993
21303,16207
" /> 
</g>
<g style="fill:#FFFFFF; fill-opacity:1.0; 
  stroke:#808000; stroke-linecap:round; stroke-linejoin:round; stroke-opacity:1.0; stroke-opacity:1.0; stroke-width:0" 
   transform="translate(0 0) scale(1 1)">
<ellipse cx="21500" cy="16600" rx="118" ry="118"  /> 
</g>
<g style="fill:#808000; fill-opacity:1.0; 
  stroke:#808000; stroke-linecap:round; stroke-linejoin:round; stroke-opacity:1.0; stroke-opacity:1.0; stroke-width:0" 
   transform="translate(0 0) scale(1 1)">
<polygon style="fill-rule:evenodd; " 
points="20697,16207
20697,16993
20303,16993
20303,16207
" /> 
</g>
<g style="fill:#FFFFFF; fill-opacity:1.0; 
  stroke:#808000; stroke-linecap:round; stroke-linejoin:round; stroke-opacity:1.0; stroke-opacity:1.0; stroke-width:0" 
   transform="translate(0 0) scale(1 1)">
<ellipse cx="20500" cy="16600" rx="118" ry="118"  /> 
</g>
<g style="fill:#808000; fill-opacity:1.0; 
  stroke:#808000; stroke-linecap:round; stroke-linejoin:round; stroke-opacity:1.0; stroke-opacity:1.0; stroke-width:0" 
   transform="translate(0 0) scale(1 1)">
<polygon style="fill-rule:evenodd; " 
points="20197,16207
20197,16993
19803,16993
19803,16207
" /> 
</g>
<g style="fill:#FFFFFF; fill-opacity:1.0; 
  stroke:#808000; stroke-linecap:round; stroke-linejoin:round; stroke-opacity:1.0; stroke-opacity:1.0; stroke-width:0" 
   transform="translate(0 0) scale(1 1)">
<ellipse cx="20000" cy="16600" rx="118" ry="118"  /> 
</g>
<g style="fill:#808000; fill-opacity:1.0; 
  stroke:#808000; stroke-linecap:round; stroke-linejoin:round; stroke-opacity:1.0; stroke-opacity:1.0; stroke-width:0" 
   transform="translate(0 0) scale(1 1)">
<polygon style="fill-rule:evenodd; " 
points="24725,8165
24725,8765
24125,8765
24125,8165
" /> 
</g>
<g style="fill:#FFFFFF; fill-opacity:1.0; 
  stroke:#808000; stroke-linecap:round; stroke-linejoin:round; stroke-opacity:1.0; stroke-opacity:1.0; stroke-width:0" 
   transform="translate(0 0) scale(1 1)">
<ellipse cx="24425" cy="8465" rx="200" ry="200"  /> 
</g>
<g style="fill:#808000; fill-opacity:1.0; 
  stroke:#808000; stroke-linecap:round; stroke-linejoin:round; stroke-opacity:1.0; stroke-opacity:1.0; stroke-width:0" 
   transform="translate(0 0) scale(1 1)">
<ellipse cx="23425" cy="8465" rx="300" ry="300"  /> 
</g>
<g style="fill:#FFFFFF; fill-opacity:1.0; 
  stroke:#808000; stroke-linecap:round; stroke-linejoin:round; stroke-opacity:1.0; stroke-opacity:1.0; stroke-width:0" 
   transform="translate(0 0) scale(1 1)">
<ellipse cx="23425" cy="8465" rx="200" ry="200"  /> 
</g>
<g style="fill:#808000; fill-opacity:1.0; 
  stroke:#808000; stroke-linecap:round; stroke-linejoin:round; stroke-opacity:1.0; stroke-opacity:1.0; stroke-width:0" 
   transform="translate(0 0) scale(1 1)">
<ellipse cx="22425" cy="8465" rx="300" ry="300"  /> 
</g>
<g style="fill:#FFFFFF; fill-opacity:1.0; 
  stroke:#808000; stroke-linecap:round; stroke-linejoin:round; stroke-opacity:1.0; stroke-opacity:1.0; stroke-width:0" 
   transform="translate(0 0) scale(1 1)">
<ellipse cx="22425" cy="8465" rx="200" ry="200"  /> 
</g>
<g style="fill:#A00000; fill-opacity:1.0; 
  stroke:#A00000; stroke-linecap:round; stroke-linejoin:round; stroke-opacity:1.0; stroke-opacity:1.0; stroke-width:0" 
   transform="translate(0 0) scale(1 1)">
<polygon style="fill-rule:evenodd; " 
points="22830,13110
22830,12480
24246,12480
24246,13110
" /> 
<polygon style="fill-rule:evenodd; " 
points="21030,13110
21030,12480
22446,12480
22446,13110
" /> 
</g>
<g style="fill:#FFFFFF; fill-opacity:1.0; 
  stroke:#FFFFFF; stroke-linecap:round; stroke-linejoin:round; stroke-opacity:1.0; stroke-opacity:1.0; stroke-width:0" 
   transform="translate(0 0) scale(1 1)">
<ellipse cx="24016" cy="14567" rx="590" ry="590"  /> 
<ellipse cx="24016" cy="10630" rx="590" ry="590"  /> 
</g> 
</svg> 
