<?xml version="1.0" standalone="no"?>
<!DOCTYPE svg PUBLIC "-//W3C//DTD SVG 1.1//EN" 
"http://www.w3.org/Graphics/SVG/1.1/DTD/svg11.dtd"> 
<svg
  xmlns="http://www.w3.org/2000/svg"
  version="1.1"
  width="11.7in" height="8.267in" viewBox="0 0 117000 82670 "
>
  <title>SVG Picture created as proximity-brd.svg </title>
  <desc>Picture generated by wxSVG v0101 </desc>
  <g style="fill:black; stroke:black; stroke-width:1">
</g>
<g style="fill:#000000; fill-opacity:0.0; 
  stroke:#000000; stroke-linecap:round; stroke-linejoin:round; stroke-opacity:1.0; stroke-opacity:1.0; stroke-width:150" 
   transform="translate(0 0) scale(1 1)">
<ellipse cx="24016" cy="10630" rx="556" ry="556"  /> 
<ellipse cx="24016" cy="14567" rx="556" ry="556"  /> 
<path d="M25197 9843 L19685 9843" /> 
<path d="M25197 17323 L25197 9843" /> 
<path d="M19685 17323 L25197 17323" /> 
<path d="M19685 9843 L19685 17323" /> 
</g>
<g style="fill:#000000; fill-opacity:0.0; 
  stroke:#000000; stroke-linecap:round; stroke-linejoin:round; stroke-opacity:1.0; stroke-opacity:1.0; stroke-width:315" 
   transform="translate(0 0) scale(1 1)">
<path d="M22000 11500 L22500 12000" /> 
<path d="M20000 11500 L22000 11500" /> 
<path d="M22000 16600 L22000 15500" /> 
<path d="M22500 14900 L22500 12500" /> 
<path d="M22000 15500 L22500 14900" /> 
<path d="M20000 16600 L20000 11500" /> 
<path d="M22500 12000 L22500 12500" /> 
<path d="M21600 15500 L21550 14000" /> 
<path d="M21500 13100 L21500 13000" /> 
<path d="M21550 14000 L21500 13100" /> 
<path d="M21000 14800 L20500 14800" /> 
<path d="M20500 14300 L20500 14100" /> 
<path d="M20500 14800 L20500 14300" /> 
<path d="M20500 16600 L20500 14100" /> 
<path d="M20500 14100 L20500 13000" /> 
<path d="M21500 16600 L21500 16300" /> 
<path d="M20950 15750 L21000 15500" /> 
<path d="M21500 16300 L20950 15750" /> 
</g>
<g style="fill:#000000; fill-opacity:0.0; 
  stroke:#000000; stroke-linecap:round; stroke-linejoin:round; stroke-opacity:1.0; stroke-opacity:1.0; stroke-width:100" 
   transform="translate(0 0) scale(1 1)">
<path d="M21850 14357 L21850 14357" /> 
<path d="M21774 14326 L21850 14357" /> 
<path d="M21712 14325 L21774 14326" /> 
<path d="M21650 14387 L21712 14325" /> 
<path d="M21650 14700 L21650 14387" /> 
<path d="M21650 14750 L21650 14700" /> 
<path d="M21650 14850 L21650 14750" /> 
<path d="M21650 14900 L21650 14850" /> 
<path d="M21650 15087 L21650 14900" /> 
<path d="M21650 15213 L21650 15087" /> 
<path d="M21650 15305 L21650 15213" /> 
<path d="M21624 15344 L21650 15305" /> 
<path d="M21620 15361 L21624 15344" /> 
<path d="M21611 15379 L21620 15361" /> 
<path d="M21603 15445 L21611 15379" /> 
<path d="M21593 15500 L21603 15445" /> 
<path d="M21593 15550 L21593 15500" /> 
<path d="M21550 15550 L21593 15550" /> 
<path d="M21550 15450 L21550 15550" /> 
<path d="M21550 15400 L21550 15450" /> 
<path d="M21550 15213 L21550 15400" /> 
<path d="M21550 15087 L21550 15213" /> 
<path d="M21550 14900 L21550 15087" /> 
<path d="M21550 14850 L21550 14900" /> 
<path d="M21550 14750 L21550 14850" /> 
<path d="M21550 14700 L21550 14750" /> 
<path d="M21550 14387 L21550 14700" /> 
<path d="M21488 14325 L21550 14387" /> 
<path d="M21450 14325 L21488 14325" /> 
<path d="M21450 14178 L21450 14325" /> 
<path d="M21450 13450 L21450 14178" /> 
<path d="M21450 13350 L21450 13450" /> 
<path d="M21450 12622 L21450 13350" /> 
<path d="M21388 12560 L21450 12622" /> 
<path d="M21201 12561 L21388 12560" /> 
<path d="M21109 12599 L21201 12561" /> 
<path d="M21039 12669 L21109 12599" /> 
<path d="M21001 12760 L21039 12669" /> 
<path d="M21001 12859 L21001 12760" /> 
<path d="M21000 13288 L21001 12859" /> 
<path d="M21062 13350 L21000 13288" /> 
<path d="M21450 13350 L21062 13350" /> 
<path d="M21450 13450 L21450 13350" /> 
<path d="M21062 13450 L21450 13450" /> 
<path d="M21000 13512 L21062 13450" /> 
<path d="M21001 13941 L21000 13512" /> 
<path d="M21001 14040 L21001 13941" /> 
<path d="M21039 14131 L21001 14040" /> 
<path d="M21109 14201 L21039 14131" /> 
<path d="M21201 14239 L21109 14201" /> 
<path d="M21388 14240 L21201 14239" /> 
<path d="M21450 14178 L21388 14240" /> 
<path d="M21450 14325 L21450 14178" /> 
<path d="M21426 14326 L21450 14325" /> 
<path d="M21334 14364 L21426 14326" /> 
<path d="M21300 14398 L21334 14364" /> 
<path d="M21266 14364 L21300 14398" /> 
<path d="M21175 14326 L21266 14364" /> 
<path d="M21076 14326 L21175 14326" /> 
<path d="M20907 14326 L21076 14326" /> 
<path d="M20907 14300 L20907 14326" /> 
<path d="M20907 14185 L20907 14300" /> 
<path d="M20961 14131 L20907 14185" /> 
<path d="M20999 14040 L20961 14131" /> 
<path d="M20999 13941 L20999 14040" /> 
<path d="M20999 12761 L20999 13941" /> 
<path d="M20961 12669 L20999 12761" /> 
<path d="M20891 12599 L20961 12669" /> 
<path d="M20850 12581 L20891 12599" /> 
<path d="M20850 12550 L20850 12581" /> 
<path d="M20407 12550 L20850 12550" /> 
<path d="M20407 11907 L20407 12550" /> 
<path d="M21831 11907 L20407 11907" /> 
<path d="M21850 11926 L21831 11907" /> 
<path d="M21850 12582 L21850 11926" /> 
<path d="M21799 12561 L21850 12582" /> 
<path d="M21612 12560 L21799 12561" /> 
<path d="M21550 12622 L21612 12560" /> 
<path d="M21550 13300 L21550 12622" /> 
<path d="M21550 13350 L21550 13300" /> 
<path d="M21550 13450 L21550 13350" /> 
<path d="M21550 13500 L21550 13450" /> 
<path d="M21550 14178 L21550 13500" /> 
<path d="M21612 14240 L21550 14178" /> 
<path d="M21799 14239 L21612 14240" /> 
<path d="M21850 14217 L21799 14239" /> 
<path d="M21850 14357 L21850 14217" /> 
</g>
<g style="fill:#000000; fill-opacity:1.0; 
  stroke:#000000; stroke-linecap:round; stroke-linejoin:round; stroke-opacity:1.0; stroke-opacity:1.0; stroke-width:0" 
   transform="translate(0 0) scale(1 1)">
<polygon style="fill-rule:evenodd; " 
points="21650,14700
21650,14750
21650,14850
21650,14900
21650,15087
21650,15213
21650,15305
21624,15344
21620,15361
21611,15379
21603,15445
21593,15500
21593,15550
21550,15550
21550,15450
21550,15400
21550,15213
21550,15087
21550,14900
21550,14850
21550,14750
21550,14700
21550,14387
21488,14325
21450,14325
21450,14178
21450,13450
21450,13350
21450,12622
21388,12560
21201,12561
21109,12599
21039,12669
21001,12760
21001,12859
21000,13288
21062,13350
21450,13350
21450,13450
21062,13450
21000,13512
21001,13941
21001,14040
21039,14131
21109,14201
21201,14239
21388,14240
21450,14178
21450,14325
21426,14326
21334,14364
21300,14398
21266,14364
21175,14326
21076,14326
20907,14326
20907,14300
20907,14185
20961,14131
20999,14040
20999,13941
20999,12761
20961,12669
20891,12599
20850,12581
20850,12550
20407,12550
20407,11907
21831,11907
21850,11926
21850,12582
21799,12561
21612,12560
21550,12622
21550,13300
21550,13350
21550,13450
21550,13500
21550,14178
21612,14240
21799,14239
21850,14217
21850,14357
21850,14357
21774,14326
21712,14325
21650,14387
" /> 
</g>
<g style="fill:#000000; fill-opacity:1.0; 
  stroke:#000000; stroke-linecap:round; stroke-linejoin:round; stroke-opacity:1.0; stroke-opacity:1.0; stroke-width:100" 
   transform="translate(0 0) scale(1 1)">
<path d="M23050 16998 L23050 16998" /> 
<path d="M23000 16998 L23050 16998" /> 
<path d="M23000 13512 L23000 16998" /> 
<path d="M23000 13288 L23000 13512" /> 
<path d="M22999 12859 L23000 13288" /> 
<path d="M22999 12760 L22999 12859" /> 
<path d="M22961 12669 L22999 12760" /> 
<path d="M22891 12599 L22961 12669" /> 
<path d="M22799 12561 L22891 12599" /> 
<path d="M22612 12560 L22799 12561" /> 
<path d="M22550 12622 L22612 12560" /> 
<path d="M22550 13350 L22550 12622" /> 
<path d="M22938 13350 L22550 13350" /> 
<path d="M23000 13288 L22938 13350" /> 
<path d="M23000 13512 L23000 13288" /> 
<path d="M22938 13450 L23000 13512" /> 
<path d="M22550 13450 L22938 13450" /> 
<path d="M22550 14178 L22550 13450" /> 
<path d="M22612 14240 L22550 14178" /> 
<path d="M22799 14239 L22612 14240" /> 
<path d="M22891 14201 L22799 14239" /> 
<path d="M22961 14131 L22891 14201" /> 
<path d="M22999 14040 L22961 14131" /> 
<path d="M22999 13941 L22999 14040" /> 
<path d="M23000 13512 L22999 13941" /> 
<path d="M23000 16998 L23000 13512" /> 
<path d="M22446 16998 L23000 16998" /> 
<path d="M22446 16944 L22446 16998" /> 
<path d="M22447 16712 L22446 16944" /> 
<path d="M22447 16488 L22447 16712" /> 
<path d="M22446 16256 L22447 16488" /> 
<path d="M22446 16157 L22446 16256" /> 
<path d="M22408 16066 L22446 16157" /> 
<path d="M22338 15996 L22408 16066" /> 
<path d="M22246 15958 L22338 15996" /> 
<path d="M22112 15957 L22246 15958" /> 
<path d="M22050 16019 L22112 15957" /> 
<path d="M22050 16550 L22050 16019" /> 
<path d="M22385 16550 L22050 16550" /> 
<path d="M22447 16488 L22385 16550" /> 
<path d="M22447 16712 L22447 16488" /> 
<path d="M22385 16650 L22447 16712" /> 
<path d="M22100 16650 L22385 16650" /> 
<path d="M22050 16650 L22100 16650" /> 
<path d="M21950 16650 L22050 16650" /> 
<path d="M21950 16550 L21950 16650" /> 
<path d="M21950 16500 L21950 16550" /> 
<path d="M21950 16019 L21950 16500" /> 
<path d="M21950 15832 L21950 16019" /> 
<path d="M21974 15775 L21950 15832" /> 
<path d="M21974 15676 L21974 15775" /> 
<path d="M21974 15654 L21974 15676" /> 
<path d="M21981 15643 L21974 15654" /> 
<path d="M22007 15486 L21981 15643" /> 
<path d="M22006 15464 L22007 15486" /> 
<path d="M22150 15321 L22006 15464" /> 
<path d="M22150 14217 L22150 15321" /> 
<path d="M22201 14239 L22150 14217" /> 
<path d="M22388 14240 L22201 14239" /> 
<path d="M22450 14178 L22388 14240" /> 
<path d="M22450 13500 L22450 14178" /> 
<path d="M22450 13450 L22450 13500" /> 
<path d="M22450 13350 L22450 13450" /> 
<path d="M22450 13300 L22450 13350" /> 
<path d="M22450 12622 L22450 13300" /> 
<path d="M22388 12560 L22450 12622" /> 
<path d="M22201 12561 L22388 12560" /> 
<path d="M22150 12582 L22201 12561" /> 
<path d="M22150 11550 L22150 12582" /> 
<path d="M20010 11550 L22150 11550" /> 
<path d="M20010 10168 L20010 11550" /> 
<path d="M23050 10168 L20010 10168" /> 
<path d="M23050 16998 L23050 10168" /> 
</g>
<g style="fill:#000000; fill-opacity:1.0; 
  stroke:#000000; stroke-linecap:round; stroke-linejoin:round; stroke-opacity:1.0; stroke-opacity:1.0; stroke-width:0" 
   transform="translate(0 0) scale(1 1)">
<polygon style="fill-rule:evenodd; " 
points="22999,12859
22999,12760
22961,12669
22891,12599
22799,12561
22612,12560
22550,12622
22550,13350
22938,13350
23000,13288
23000,13512
22938,13450
22550,13450
22550,14178
22612,14240
22799,14239
22891,14201
22961,14131
22999,14040
22999,13941
23000,13512
23000,16998
22446,16998
22446,16944
22447,16712
22447,16488
22446,16256
22446,16157
22408,16066
22338,15996
22246,15958
22112,15957
22050,16019
22050,16550
22385,16550
22447,16488
22447,16712
22385,16650
22100,16650
22050,16650
21950,16650
21950,16550
21950,16500
21950,16019
21950,15832
21974,15775
21974,15676
21974,15654
21981,15643
22007,15486
22006,15464
22150,15321
22150,14217
22201,14239
22388,14240
22450,14178
22450,13500
22450,13450
22450,13350
22450,13300
22450,12622
22388,12560
22201,12561
22150,12582
22150,11550
20010,11550
20010,10168
23050,10168
23050,16998
23050,16998
23000,16998
23000,13512
23000,13288
" /> 
<polygon style="fill-rule:evenodd; " 
points="20875,15025
20875,14575
21125,14575
21125,15025
" /> 
<polygon style="fill-rule:evenodd; " 
points="21475,15025
21475,14575
21725,14575
21725,15025
" /> 
<path d="M21298 14800 L21302 14800" /> 
<path d="M21300 14798 L21300 14802" /> 
<polygon style="fill-rule:evenodd; " 
points="20875,15725
20875,15275
21125,15275
21125,15725
" /> 
<polygon style="fill-rule:evenodd; " 
points="21475,15725
21475,15275
21725,15275
21725,15725
" /> 
<path d="M21298 15500 L21302 15500" /> 
<path d="M21300 15498 L21300 15502" /> 
<polygon style="fill-rule:evenodd; " 
points="22750,12810
22750,13990
22250,13990
22250,12810
" /> 
<polygon style="fill-rule:evenodd; " 
points="21750,12810
21750,13990
21250,13990
21250,12810
" /> 
<polygon style="fill-rule:evenodd; " 
points="20750,12810
20750,13990
20250,13990
20250,12810
" /> 
<path d="M21498 14900 L21502 14900" /> 
<path d="M21500 14898 L21500 14902" /> 
<polygon style="fill-rule:evenodd; " 
points="22197,16207
22197,16993
21803,16993
21803,16207
" /> 
</g>
<g style="fill:#FFFFFF; fill-opacity:1.0; 
  stroke:#808000; stroke-linecap:round; stroke-linejoin:round; stroke-opacity:1.0; stroke-opacity:1.0; stroke-width:0" 
   transform="translate(0 0) scale(1 1)">
<ellipse cx="22000" cy="16600" rx="118" ry="118"  /> 
</g>
<g style="fill:#000000; fill-opacity:1.0; 
  stroke:#000000; stroke-linecap:round; stroke-linejoin:round; stroke-opacity:1.0; stroke-opacity:1.0; stroke-width:0" 
   transform="translate(0 0) scale(1 1)">
<polygon style="fill-rule:evenodd; " 
points="21697,16207
21697,16993
21303,16993
21303,16207
" /> 
</g>
<g style="fill:#FFFFFF; fill-opacity:1.0; 
  stroke:#808000; stroke-linecap:round; stroke-linejoin:round; stroke-opacity:1.0; stroke-opacity:1.0; stroke-width:0" 
   transform="translate(0 0) scale(1 1)">
<ellipse cx="21500" cy="16600" rx="118" ry="118"  /> 
</g>
<g style="fill:#000000; fill-opacity:1.0; 
  stroke:#000000; stroke-linecap:round; stroke-linejoin:round; stroke-opacity:1.0; stroke-opacity:1.0; stroke-width:0" 
   transform="translate(0 0) scale(1 1)">
<polygon style="fill-rule:evenodd; " 
points="20697,16207
20697,16993
20303,16993
20303,16207
" /> 
</g>
<g style="fill:#FFFFFF; fill-opacity:1.0; 
  stroke:#808000; stroke-linecap:round; stroke-linejoin:round; stroke-opacity:1.0; stroke-opacity:1.0; stroke-width:0" 
   transform="translate(0 0) scale(1 1)">
<ellipse cx="20500" cy="16600" rx="118" ry="118"  /> 
</g>
<g style="fill:#000000; fill-opacity:1.0; 
  stroke:#000000; stroke-linecap:round; stroke-linejoin:round; stroke-opacity:1.0; stroke-opacity:1.0; stroke-width:0" 
   transform="translate(0 0) scale(1 1)">
<polygon style="fill-rule:evenodd; " 
points="20197,16207
20197,16993
19803,16993
19803,16207
" /> 
</g>
<g style="fill:#FFFFFF; fill-opacity:1.0; 
  stroke:#808000; stroke-linecap:round; stroke-linejoin:round; stroke-opacity:1.0; stroke-opacity:1.0; stroke-width:0" 
   transform="translate(0 0) scale(1 1)">
<ellipse cx="20000" cy="16600" rx="118" ry="118"  /> 
</g>
<g style="fill:#FFFFFF; fill-opacity:1.0; 
  stroke:#000000; stroke-linecap:round; stroke-linejoin:round; stroke-opacity:1.0; stroke-opacity:1.0; stroke-width:0" 
   transform="translate(0 0) scale(1 1)">
<path d="M20998 17600 L21002 17600" /> 
<path d="M21000 17598 L21000 17602" /> 
</g> 
</svg> 
