G04 (created by PCBNEW-RS274X (2012-apr-16-27)-stable) date Thu 17 Apr 2014 14:15:56 BST*
G01*
G70*
G90*
%MOIN*%
G04 Gerber Fmt 3.4, Leading zero omitted, Abs format*
%FSLAX34Y34*%
G04 APERTURE LIST*
%ADD10C,0.020000*%
%ADD11C,0.012000*%
%ADD12C,0.015000*%
%ADD13C,0.005000*%
%ADD14C,0.006000*%
%ADD15C,0.004500*%
%ADD16C,0.004900*%
%ADD17C,0.003000*%
G04 APERTURE END LIST*
G54D10*
G54D11*
X04890Y10139D02*
X05347Y10139D01*
X05118Y09834D02*
X05118Y10444D01*
G54D12*
X00409Y00220D02*
X05909Y00220D01*
X00409Y10020D02*
X00409Y00220D01*
X01609Y11220D02*
X05909Y11220D01*
X00409Y10020D02*
X01609Y11220D01*
X05909Y10420D02*
X05909Y11220D01*
X05906Y00197D02*
X05906Y10433D01*
G54D13*
X01637Y08400D02*
X02537Y08400D01*
X02537Y08400D02*
X02537Y07900D01*
X02537Y07900D02*
X01637Y07900D01*
X01637Y07900D02*
X01637Y08400D01*
X01483Y02188D02*
X01483Y03088D01*
X01483Y03088D02*
X01983Y03088D01*
X01983Y03088D02*
X01983Y02188D01*
X01983Y02188D02*
X01483Y02188D01*
G54D12*
X03209Y01420D02*
X00209Y01420D01*
X03209Y00420D02*
X00209Y00420D01*
G54D11*
X03209Y01420D02*
X03209Y00420D01*
X00209Y00420D02*
X00209Y01420D01*
G54D13*
X02188Y02189D02*
X03088Y02189D01*
X03088Y02189D02*
X03088Y02839D01*
X02188Y03539D02*
X02188Y04189D01*
X02188Y04189D02*
X03088Y04189D01*
X03088Y04189D02*
X03088Y03539D01*
X02188Y02839D02*
X02188Y02189D01*
X01991Y05683D02*
X02891Y05683D01*
X02891Y05683D02*
X02891Y05183D01*
X02891Y05183D02*
X01991Y05183D01*
X01991Y05183D02*
X01991Y05683D01*
X01991Y06471D02*
X02891Y06471D01*
X02891Y06471D02*
X02891Y05971D01*
X02891Y05971D02*
X01991Y05971D01*
X01991Y05971D02*
X01991Y06471D01*
X02609Y09620D02*
X01509Y09620D01*
X02609Y08620D02*
X01509Y08620D01*
G54D14*
X05609Y09620D02*
X05609Y08620D01*
X05609Y08620D02*
X02609Y08620D01*
X01509Y08620D02*
X01509Y09620D01*
X02609Y09620D02*
X05609Y09620D01*
X04609Y08620D02*
X04609Y09620D01*
G54D13*
X02623Y07005D02*
X02423Y06705D01*
X02623Y07705D02*
X02623Y06680D01*
X02623Y06680D02*
X02023Y06680D01*
X02023Y06680D02*
X02023Y07705D01*
X02023Y07705D02*
X02623Y07705D01*
G54D10*
X02612Y01213D02*
X02612Y00627D01*
X02806Y00627D01*
X02806Y01213D01*
X02612Y01213D01*
X02112Y01213D02*
X02112Y00627D01*
X02306Y00627D01*
X02306Y01213D01*
X02112Y01213D01*
X01112Y01213D02*
X01112Y00627D01*
X01306Y00627D01*
X01306Y01213D01*
X01112Y01213D01*
X00612Y01213D02*
X00612Y00627D01*
X00806Y00627D01*
X00806Y01213D01*
X00612Y01213D01*
X04816Y09413D02*
X04816Y08827D01*
X05402Y08827D01*
X05402Y09413D01*
X04816Y09413D01*
X04402Y09120D02*
X04396Y09064D01*
X04379Y09009D01*
X04353Y08958D01*
X04316Y08914D01*
X04272Y08878D01*
X04222Y08850D01*
X04167Y08833D01*
X04111Y08828D01*
X04055Y08833D01*
X04000Y08849D01*
X03949Y08875D01*
X03904Y08911D01*
X03868Y08955D01*
X03840Y09005D01*
X03823Y09060D01*
X03817Y09116D01*
X03821Y09172D01*
X03837Y09227D01*
X03863Y09278D01*
X03899Y09323D01*
X03942Y09360D01*
X03992Y09388D01*
X04047Y09406D01*
X04103Y09412D01*
X04159Y09408D01*
X04214Y09393D01*
X04265Y09367D01*
X04311Y09332D01*
X04348Y09288D01*
X04376Y09239D01*
X04394Y09184D01*
X04401Y09128D01*
X04402Y09120D01*
X03402Y09120D02*
X03396Y09064D01*
X03379Y09009D01*
X03353Y08958D01*
X03316Y08914D01*
X03272Y08878D01*
X03222Y08850D01*
X03167Y08833D01*
X03111Y08828D01*
X03055Y08833D01*
X03000Y08849D01*
X02949Y08875D01*
X02904Y08911D01*
X02868Y08955D01*
X02840Y09005D01*
X02823Y09060D01*
X02817Y09116D01*
X02821Y09172D01*
X02837Y09227D01*
X02863Y09278D01*
X02899Y09323D01*
X02942Y09360D01*
X02992Y09388D01*
X03047Y09406D01*
X03103Y09412D01*
X03159Y09408D01*
X03214Y09393D01*
X03265Y09367D01*
X03311Y09332D01*
X03348Y09288D01*
X03376Y09239D01*
X03394Y09184D01*
X03401Y09128D01*
X03402Y09120D01*
X02402Y09120D02*
X02396Y09064D01*
X02379Y09009D01*
X02353Y08958D01*
X02316Y08914D01*
X02272Y08878D01*
X02222Y08850D01*
X02167Y08833D01*
X02111Y08828D01*
X02055Y08833D01*
X02000Y08849D01*
X01949Y08875D01*
X01904Y08911D01*
X01868Y08955D01*
X01840Y09005D01*
X01823Y09060D01*
X01817Y09116D01*
X01821Y09172D01*
X01837Y09227D01*
X01863Y09278D01*
X01899Y09323D01*
X01942Y09360D01*
X01992Y09388D01*
X02047Y09406D01*
X02103Y09412D01*
X02159Y09408D01*
X02214Y09393D01*
X02265Y09367D01*
X02311Y09332D01*
X02348Y09288D01*
X02376Y09239D01*
X02394Y09184D01*
X02401Y09128D01*
X02402Y09120D01*
G54D15*
X01349Y08066D02*
X01289Y08161D01*
X01246Y08066D02*
X01246Y08266D01*
X01314Y08266D01*
X01332Y08257D01*
X01340Y08247D01*
X01349Y08228D01*
X01349Y08199D01*
X01340Y08180D01*
X01332Y08171D01*
X01314Y08161D01*
X01246Y08161D01*
X01520Y08066D02*
X01417Y08066D01*
X01469Y08066D02*
X01469Y08266D01*
X01452Y08237D01*
X01434Y08218D01*
X01417Y08209D01*
X01786Y01939D02*
X01691Y01879D01*
X01786Y01836D02*
X01586Y01836D01*
X01586Y01904D01*
X01595Y01922D01*
X01605Y01930D01*
X01624Y01939D01*
X01653Y01939D01*
X01672Y01930D01*
X01681Y01922D01*
X01691Y01904D01*
X01691Y01836D01*
X01605Y02007D02*
X01595Y02016D01*
X01586Y02033D01*
X01586Y02076D01*
X01595Y02093D01*
X01605Y02102D01*
X01624Y02110D01*
X01643Y02110D01*
X01672Y02102D01*
X01786Y01999D01*
X01786Y02110D01*
G54D16*
X03394Y00818D02*
X03394Y00563D01*
X03403Y00533D01*
X03413Y00518D01*
X03431Y00503D01*
X03469Y00503D01*
X03488Y00518D01*
X03497Y00533D01*
X03506Y00563D01*
X03506Y00818D01*
X03703Y00503D02*
X03591Y00503D01*
X03647Y00503D02*
X03647Y00818D01*
X03628Y00773D01*
X03609Y00743D01*
X03591Y00728D01*
G54D13*
X01983Y03887D02*
X01997Y03873D01*
X02011Y03830D01*
X02011Y03801D01*
X01997Y03758D01*
X01969Y03730D01*
X01940Y03715D01*
X01883Y03701D01*
X01840Y03701D01*
X01783Y03715D01*
X01754Y03730D01*
X01726Y03758D01*
X01711Y03801D01*
X01711Y03830D01*
X01726Y03873D01*
X01740Y03887D01*
X02011Y04173D02*
X02011Y04001D01*
X02011Y04087D02*
X01711Y04087D01*
X01754Y04058D01*
X01783Y04030D01*
X01797Y04001D01*
G54D15*
X01664Y05352D02*
X01604Y05447D01*
X01561Y05352D02*
X01561Y05552D01*
X01629Y05552D01*
X01647Y05543D01*
X01655Y05533D01*
X01664Y05514D01*
X01664Y05485D01*
X01655Y05466D01*
X01647Y05457D01*
X01629Y05447D01*
X01561Y05447D01*
X01724Y05552D02*
X01835Y05552D01*
X01775Y05476D01*
X01801Y05476D01*
X01818Y05466D01*
X01827Y05457D01*
X01835Y05438D01*
X01835Y05390D01*
X01827Y05371D01*
X01818Y05362D01*
X01801Y05352D01*
X01749Y05352D01*
X01732Y05362D01*
X01724Y05371D01*
X01664Y06140D02*
X01604Y06235D01*
X01561Y06140D02*
X01561Y06340D01*
X01629Y06340D01*
X01647Y06331D01*
X01655Y06321D01*
X01664Y06302D01*
X01664Y06273D01*
X01655Y06254D01*
X01647Y06245D01*
X01629Y06235D01*
X01561Y06235D01*
X01818Y06273D02*
X01818Y06140D01*
X01775Y06350D02*
X01732Y06207D01*
X01844Y06207D01*
G54D14*
X01792Y09956D02*
X01792Y10356D01*
X01945Y10356D01*
X01983Y10337D01*
X02002Y10318D01*
X02021Y10280D01*
X02021Y10223D01*
X02002Y10185D01*
X01983Y10166D01*
X01945Y10147D01*
X01792Y10147D01*
X02402Y09956D02*
X02173Y09956D01*
X02287Y09956D02*
X02287Y10356D01*
X02249Y10299D01*
X02211Y10261D01*
X02173Y10242D01*
G54D17*
X01586Y07055D02*
X01558Y07069D01*
X01529Y07098D01*
X01486Y07141D01*
X01458Y07155D01*
X01429Y07155D01*
X01444Y07084D02*
X01415Y07098D01*
X01386Y07126D01*
X01372Y07184D01*
X01372Y07284D01*
X01386Y07341D01*
X01415Y07369D01*
X01444Y07384D01*
X01501Y07384D01*
X01529Y07369D01*
X01558Y07341D01*
X01572Y07284D01*
X01572Y07184D01*
X01558Y07126D01*
X01529Y07098D01*
X01501Y07084D01*
X01444Y07084D01*
X01858Y07084D02*
X01686Y07084D01*
X01772Y07084D02*
X01772Y07384D01*
X01743Y07341D01*
X01715Y07312D01*
X01686Y07298D01*
X02205Y05537D02*
X02205Y05649D01*
X02402Y05593D02*
X02205Y05593D01*
X02402Y05827D02*
X02308Y05762D01*
X02402Y05715D02*
X02205Y05715D01*
X02205Y05790D01*
X02215Y05809D01*
X02224Y05818D01*
X02243Y05827D01*
X02271Y05827D01*
X02290Y05818D01*
X02299Y05809D01*
X02308Y05790D01*
X02308Y05715D01*
X02346Y05903D02*
X02346Y05996D01*
X02402Y05884D02*
X02205Y05949D01*
X02402Y06015D01*
X02402Y06081D02*
X02205Y06081D01*
X02402Y06193D01*
X02205Y06193D01*
X02393Y06278D02*
X02402Y06306D01*
X02402Y06353D01*
X02393Y06371D01*
X02383Y06381D01*
X02365Y06390D01*
X02346Y06390D01*
X02327Y06381D01*
X02318Y06371D01*
X02308Y06353D01*
X02299Y06315D01*
X02290Y06296D01*
X02280Y06287D01*
X02262Y06278D01*
X02243Y06278D01*
X02224Y06287D01*
X02215Y06296D01*
X02205Y06315D01*
X02205Y06362D01*
X02215Y06390D01*
X02402Y06475D02*
X02205Y06475D01*
X02393Y06560D02*
X02402Y06588D01*
X02402Y06635D01*
X02393Y06653D01*
X02383Y06663D01*
X02365Y06672D01*
X02346Y06672D01*
X02327Y06663D01*
X02318Y06653D01*
X02308Y06635D01*
X02299Y06597D01*
X02290Y06578D01*
X02280Y06569D01*
X02262Y06560D01*
X02243Y06560D01*
X02224Y06569D01*
X02215Y06578D01*
X02205Y06597D01*
X02205Y06644D01*
X02215Y06672D01*
X02205Y06729D02*
X02205Y06841D01*
X02402Y06785D02*
X02205Y06785D01*
X02205Y06944D02*
X02205Y06982D01*
X02215Y07001D01*
X02233Y07019D01*
X02271Y07029D01*
X02337Y07029D01*
X02374Y07019D01*
X02393Y07001D01*
X02402Y06982D01*
X02402Y06944D01*
X02393Y06926D01*
X02374Y06907D01*
X02337Y06898D01*
X02271Y06898D01*
X02233Y06907D01*
X02215Y06926D01*
X02205Y06944D01*
X02402Y07225D02*
X02308Y07160D01*
X02402Y07113D02*
X02205Y07113D01*
X02205Y07188D01*
X02215Y07207D01*
X02224Y07216D01*
X02243Y07225D01*
X02271Y07225D01*
X02290Y07216D01*
X02299Y07207D01*
X02308Y07188D01*
X02308Y07113D01*
X02421Y07263D02*
X02421Y07413D01*
X02402Y07460D02*
X02205Y07460D01*
X02402Y07572D01*
X02205Y07572D01*
X02402Y07666D02*
X02205Y07666D01*
X02205Y07741D01*
X02215Y07760D01*
X02224Y07769D01*
X02243Y07778D01*
X02271Y07778D01*
X02290Y07769D01*
X02299Y07760D01*
X02308Y07741D01*
X02308Y07666D01*
X02402Y07863D02*
X02205Y07863D01*
X02402Y07975D01*
X02205Y07975D01*
X02393Y08060D02*
X02402Y08088D01*
X02402Y08135D01*
X02393Y08153D01*
X02383Y08163D01*
X02365Y08172D01*
X02346Y08172D01*
X02327Y08163D01*
X02318Y08153D01*
X02308Y08135D01*
X02299Y08097D01*
X02290Y08078D01*
X02280Y08069D01*
X02262Y08060D01*
X02243Y08060D01*
X02224Y08069D01*
X02215Y08078D01*
X02205Y08097D01*
X02205Y08144D01*
X02215Y08172D01*
X02205Y08294D02*
X02205Y08332D01*
X02215Y08351D01*
X02233Y08369D01*
X02271Y08379D01*
X02337Y08379D01*
X02374Y08369D01*
X02393Y08351D01*
X02402Y08332D01*
X02402Y08294D01*
X02393Y08276D01*
X02374Y08257D01*
X02337Y08248D01*
X02271Y08248D01*
X02233Y08257D01*
X02215Y08276D01*
X02205Y08294D01*
X02205Y08435D02*
X02205Y08547D01*
X02402Y08491D02*
X02205Y08491D01*
X02224Y08604D02*
X02215Y08613D01*
X02205Y08632D01*
X02205Y08679D01*
X02215Y08697D01*
X02224Y08707D01*
X02243Y08716D01*
X02262Y08716D01*
X02290Y08707D01*
X02402Y08594D01*
X02402Y08716D01*
X02205Y08782D02*
X02205Y08904D01*
X02280Y08838D01*
X02280Y08867D01*
X02290Y08885D01*
X02299Y08895D01*
X02318Y08904D01*
X02365Y08904D01*
X02383Y08895D01*
X02393Y08885D01*
X02402Y08867D01*
X02402Y08810D01*
X02393Y08792D01*
X02383Y08782D01*
M02*
