G04 (created by PCBNEW-RS274X (2012-apr-16-27)-stable) date Tue 07 Jan 2014 22:20:38 GMT*
G01*
G70*
G90*
%MOIN*%
G04 Gerber Fmt 3.4, Leading zero omitted, Abs format*
%FSLAX34Y34*%
G04 APERTURE LIST*
%ADD10C,0.020000*%
%ADD11C,0.015000*%
%ADD12R,0.025000X0.045000*%
%ADD13R,0.045000X0.025000*%
%ADD14R,0.039400X0.078700*%
%ADD15R,0.080000X0.060000*%
%ADD16R,0.078700X0.078700*%
%ADD17C,0.078700*%
%ADD18R,0.039400X0.027600*%
%ADD19C,0.196900*%
%ADD20C,0.035000*%
%ADD21C,0.031500*%
%ADD22C,0.025200*%
%ADD23C,0.010000*%
G04 APERTURE END LIST*
G54D10*
G54D11*
X00409Y00220D02*
X05909Y00220D01*
X00409Y10020D02*
X00409Y00220D01*
X01609Y11220D02*
X05909Y11220D01*
X00409Y10020D02*
X01609Y11220D01*
X05909Y10420D02*
X05909Y11220D01*
X05906Y00197D02*
X05906Y10433D01*
G54D12*
X01787Y08150D03*
X02387Y08150D03*
G54D13*
X01733Y02338D03*
X01733Y02938D03*
G54D14*
X02709Y00920D03*
X02209Y00920D03*
X01209Y00920D03*
X00709Y00920D03*
G54D15*
X02638Y02539D03*
X02638Y03839D03*
G54D12*
X02141Y05433D03*
X02741Y05433D03*
X02141Y06221D03*
X02741Y06221D03*
G54D16*
X05109Y09120D03*
G54D17*
X04109Y09120D03*
X03109Y09120D03*
X02109Y09120D03*
G54D18*
X01823Y07205D03*
X02823Y07580D03*
X02823Y06830D03*
G54D19*
X04725Y02953D03*
X04725Y06890D03*
G54D20*
X02166Y04646D03*
X02796Y04646D03*
G54D21*
X02709Y02606D02*
X02709Y00920D01*
X03465Y02520D02*
X03229Y02520D01*
X02756Y02559D02*
X02709Y02606D01*
X05109Y09120D02*
X05109Y10620D01*
X03465Y05945D02*
X03465Y07992D01*
X03465Y07992D02*
X03701Y08307D01*
X03229Y02520D02*
X02756Y02559D01*
X03485Y03485D02*
X03465Y02520D01*
X03485Y04706D02*
X03485Y03485D01*
X03465Y04685D02*
X03465Y05945D01*
X00709Y09420D02*
X00709Y00920D01*
G54D22*
X03504Y04725D02*
X03485Y04706D01*
X03485Y04706D02*
X03465Y04685D01*
G54D21*
X05109Y08570D02*
X05109Y09120D01*
X04859Y08320D02*
X05109Y08570D01*
X03701Y08307D02*
X04859Y08320D01*
X01909Y10620D02*
X00709Y09420D01*
X05109Y10620D02*
X01909Y10620D01*
X03465Y04685D02*
X03504Y04725D01*
X02141Y05222D02*
X02166Y04646D01*
X02126Y06142D02*
X02141Y05222D01*
X02796Y04646D02*
X02796Y03997D01*
X02796Y03997D02*
X02638Y03839D01*
X02741Y05134D02*
X02796Y04646D01*
X02823Y08111D02*
X02823Y07659D01*
X02835Y08138D02*
X02835Y08111D01*
X02823Y08768D02*
X02823Y08111D01*
X02387Y08150D02*
X02823Y08150D01*
X02835Y08111D02*
X02823Y08111D01*
X03109Y09120D02*
X03109Y09054D01*
X02823Y08150D02*
X02835Y08138D01*
X03109Y09054D02*
X02823Y08768D01*
X02756Y05394D02*
X02741Y05134D01*
G54D22*
X02823Y06830D02*
X02823Y06303D01*
X02823Y06303D02*
X02741Y06221D01*
G54D21*
X02209Y01020D02*
X02009Y00920D01*
X02209Y00920D02*
X02209Y01020D01*
X01709Y00920D02*
X01733Y02205D01*
X02009Y00920D02*
X01709Y00920D01*
X02009Y00920D02*
X02009Y00920D01*
X01733Y02938D02*
X01733Y07115D01*
X01733Y07115D02*
X01823Y07205D01*
X01787Y08150D02*
X01787Y08798D01*
X01787Y08798D02*
X02109Y09120D01*
X02109Y09120D02*
X01409Y09120D01*
X01209Y08920D02*
X01209Y03220D01*
X01409Y09120D02*
X01209Y08920D01*
X01209Y03347D02*
X01209Y03420D01*
X01209Y03220D02*
X01209Y03347D01*
X01209Y00920D02*
X01209Y03420D01*
G54D10*
G36*
X05584Y10448D02*
X05581Y10433D01*
X05581Y09750D01*
X05551Y09762D01*
X05221Y09763D01*
X05159Y09701D01*
X05159Y09220D01*
X05159Y09170D01*
X05159Y09070D01*
X05159Y09020D01*
X05159Y08539D01*
X05221Y08477D01*
X05551Y08478D01*
X05581Y08491D01*
X05581Y07779D01*
X05425Y07935D01*
X04972Y08123D01*
X04481Y08124D01*
X04027Y07937D01*
X03680Y07590D01*
X03492Y07137D01*
X03491Y06646D01*
X03678Y06192D01*
X04025Y05845D01*
X04478Y05657D01*
X04969Y05656D01*
X05423Y05843D01*
X05581Y06001D01*
X05581Y03842D01*
X05425Y03998D01*
X04972Y04186D01*
X04481Y04187D01*
X04027Y04000D01*
X03680Y03653D01*
X03492Y03200D01*
X03491Y02709D01*
X03678Y02255D01*
X04025Y01908D01*
X04478Y01720D01*
X04969Y01719D01*
X05423Y01906D01*
X05581Y02064D01*
X05581Y00545D01*
X03288Y00545D01*
X03288Y02427D01*
X03226Y02489D01*
X02688Y02489D01*
X02688Y02051D01*
X02750Y01989D01*
X02989Y01990D01*
X03088Y01990D01*
X03179Y02028D01*
X03249Y02098D01*
X03287Y02190D01*
X03288Y02427D01*
X03288Y00545D01*
X03155Y00545D01*
X03155Y00576D01*
X03156Y00808D01*
X03094Y00870D01*
X02809Y00870D01*
X02759Y00870D01*
X02759Y00970D01*
X02809Y00970D01*
X03094Y00970D01*
X03156Y01032D01*
X03155Y01264D01*
X03155Y01363D01*
X03117Y01454D01*
X03047Y01524D01*
X02955Y01562D01*
X02821Y01563D01*
X02809Y01552D01*
X02809Y01563D01*
X02767Y01563D01*
X02768Y01586D01*
X02294Y01586D01*
X02294Y01990D01*
X02526Y01989D01*
X02588Y02051D01*
X02588Y02439D01*
X02588Y02489D01*
X02588Y02589D01*
X02688Y02589D01*
X02738Y02589D01*
X03226Y02589D01*
X03288Y02651D01*
X03287Y02888D01*
X03249Y02980D01*
X03240Y02989D01*
X03243Y03393D01*
X03249Y03398D01*
X03287Y03489D01*
X03287Y03588D01*
X03287Y04188D01*
X03249Y04279D01*
X03249Y04280D01*
X03266Y06636D01*
X03269Y06642D01*
X03269Y06741D01*
X03269Y07008D01*
X03269Y07017D01*
X03279Y08415D01*
X04680Y08420D01*
X04737Y08478D01*
X04997Y08477D01*
X05059Y08539D01*
X05059Y09020D01*
X05059Y09070D01*
X05059Y09170D01*
X05059Y09220D01*
X05059Y09701D01*
X04997Y09763D01*
X04959Y09763D01*
X04959Y09820D01*
X02459Y09820D01*
X02459Y09671D01*
X02238Y09763D01*
X01982Y09763D01*
X01746Y09665D01*
X01650Y09570D01*
X00734Y09570D01*
X00734Y09885D01*
X01744Y10895D01*
X05584Y10895D01*
X05584Y10448D01*
X05584Y10448D01*
G37*
G54D23*
X05584Y10448D02*
X05581Y10433D01*
X05581Y09750D01*
X05551Y09762D01*
X05221Y09763D01*
X05159Y09701D01*
X05159Y09220D01*
X05159Y09170D01*
X05159Y09070D01*
X05159Y09020D01*
X05159Y08539D01*
X05221Y08477D01*
X05551Y08478D01*
X05581Y08491D01*
X05581Y07779D01*
X05425Y07935D01*
X04972Y08123D01*
X04481Y08124D01*
X04027Y07937D01*
X03680Y07590D01*
X03492Y07137D01*
X03491Y06646D01*
X03678Y06192D01*
X04025Y05845D01*
X04478Y05657D01*
X04969Y05656D01*
X05423Y05843D01*
X05581Y06001D01*
X05581Y03842D01*
X05425Y03998D01*
X04972Y04186D01*
X04481Y04187D01*
X04027Y04000D01*
X03680Y03653D01*
X03492Y03200D01*
X03491Y02709D01*
X03678Y02255D01*
X04025Y01908D01*
X04478Y01720D01*
X04969Y01719D01*
X05423Y01906D01*
X05581Y02064D01*
X05581Y00545D01*
X03288Y00545D01*
X03288Y02427D01*
X03226Y02489D01*
X02688Y02489D01*
X02688Y02051D01*
X02750Y01989D01*
X02989Y01990D01*
X03088Y01990D01*
X03179Y02028D01*
X03249Y02098D01*
X03287Y02190D01*
X03288Y02427D01*
X03288Y00545D01*
X03155Y00545D01*
X03155Y00576D01*
X03156Y00808D01*
X03094Y00870D01*
X02809Y00870D01*
X02759Y00870D01*
X02759Y00970D01*
X02809Y00970D01*
X03094Y00970D01*
X03156Y01032D01*
X03155Y01264D01*
X03155Y01363D01*
X03117Y01454D01*
X03047Y01524D01*
X02955Y01562D01*
X02821Y01563D01*
X02809Y01552D01*
X02809Y01563D01*
X02767Y01563D01*
X02768Y01586D01*
X02294Y01586D01*
X02294Y01990D01*
X02526Y01989D01*
X02588Y02051D01*
X02588Y02439D01*
X02588Y02489D01*
X02588Y02589D01*
X02688Y02589D01*
X02738Y02589D01*
X03226Y02589D01*
X03288Y02651D01*
X03287Y02888D01*
X03249Y02980D01*
X03240Y02989D01*
X03243Y03393D01*
X03249Y03398D01*
X03287Y03489D01*
X03287Y03588D01*
X03287Y04188D01*
X03249Y04279D01*
X03249Y04280D01*
X03266Y06636D01*
X03269Y06642D01*
X03269Y06741D01*
X03269Y07008D01*
X03269Y07017D01*
X03279Y08415D01*
X04680Y08420D01*
X04737Y08478D01*
X04997Y08477D01*
X05059Y08539D01*
X05059Y09020D01*
X05059Y09070D01*
X05059Y09170D01*
X05059Y09220D01*
X05059Y09701D01*
X04997Y09763D01*
X04959Y09763D01*
X04959Y09820D01*
X02459Y09820D01*
X02459Y09671D01*
X02238Y09763D01*
X01982Y09763D01*
X01746Y09665D01*
X01650Y09570D01*
X00734Y09570D01*
X00734Y09885D01*
X01744Y10895D01*
X05584Y10895D01*
X05584Y10448D01*
M02*
