G04 (created by PCBNEW-RS274X (2012-apr-16-27)-stable) date Thu 17 Apr 2014 14:15:56 BST*
G01*
G70*
G90*
%MOIN*%
G04 Gerber Fmt 3.4, Leading zero omitted, Abs format*
%FSLAX34Y34*%
G04 APERTURE LIST*
%ADD10C,0.020000*%
%ADD11C,0.015000*%
%ADD12R,0.039400X0.078700*%
%ADD13R,0.078700X0.078700*%
%ADD14C,0.078700*%
%ADD15C,0.035000*%
%ADD16C,0.196900*%
%ADD17C,0.031500*%
%ADD18C,0.008000*%
%ADD19C,0.010000*%
G04 APERTURE END LIST*
G54D10*
G54D11*
X00409Y00220D02*
X05909Y00220D01*
X00409Y10020D02*
X00409Y00220D01*
X01609Y11220D02*
X05909Y11220D01*
X00409Y10020D02*
X01609Y11220D01*
X05909Y10420D02*
X05909Y11220D01*
X05906Y00197D02*
X05906Y10433D01*
G54D12*
X02709Y00920D03*
X02209Y00920D03*
X01209Y00920D03*
X00709Y00920D03*
G54D13*
X05109Y09120D03*
G54D14*
X04109Y09120D03*
X03109Y09120D03*
X02109Y09120D03*
G54D15*
X02166Y04646D03*
X02737Y04685D03*
G54D16*
X04725Y06890D03*
X04725Y02953D03*
G54D17*
X01024Y06339D02*
X01024Y09449D01*
X02166Y04646D02*
X01024Y06339D01*
X04109Y09750D02*
X04109Y09120D01*
X01024Y09449D02*
X01693Y10118D01*
X03741Y10118D02*
X04109Y09750D01*
X01693Y10118D02*
X03741Y10118D01*
G54D18*
X02737Y04685D02*
X04469Y02953D01*
X04075Y07540D02*
X03819Y07540D01*
X03819Y07540D02*
X03109Y08250D01*
X03109Y08250D02*
X03109Y09120D01*
X04725Y06890D02*
X04075Y07540D01*
X04469Y02953D02*
X04725Y02953D01*
G54D10*
G36*
X05581Y00545D02*
X03482Y00545D01*
X03482Y08676D01*
X03109Y09049D01*
X02736Y08676D01*
X02773Y08572D01*
X03009Y08485D01*
X03259Y08495D01*
X03445Y08572D01*
X03482Y08676D01*
X03482Y00545D01*
X03155Y00545D01*
X03155Y00576D01*
X03155Y01362D01*
X03117Y01454D01*
X03047Y01524D01*
X02956Y01562D01*
X02857Y01562D01*
X02463Y01562D01*
X02459Y01561D01*
X02456Y01562D01*
X02357Y01562D01*
X01963Y01562D01*
X01871Y01524D01*
X01801Y01454D01*
X01763Y01363D01*
X01763Y01264D01*
X01763Y00545D01*
X01655Y00545D01*
X01655Y00576D01*
X01655Y01362D01*
X01617Y01454D01*
X01547Y01524D01*
X01456Y01562D01*
X01357Y01562D01*
X00963Y01562D01*
X00959Y01561D01*
X00956Y01562D01*
X00857Y01562D01*
X00734Y01562D01*
X00734Y06042D01*
X01755Y04527D01*
X01805Y04406D01*
X01925Y04286D01*
X02081Y04221D01*
X02250Y04221D01*
X02406Y04285D01*
X02526Y04405D01*
X02591Y04561D01*
X02591Y04730D01*
X02527Y04886D01*
X02428Y04985D01*
X01431Y06464D01*
X01431Y09052D01*
X01466Y09052D01*
X01466Y08993D01*
X01564Y08757D01*
X01744Y08576D01*
X01980Y08477D01*
X02236Y08477D01*
X02472Y08575D01*
X02650Y08753D01*
X02665Y08747D01*
X02981Y09064D01*
X03234Y09066D01*
X03553Y08747D01*
X03568Y08753D01*
X03744Y08576D01*
X03980Y08477D01*
X04236Y08477D01*
X04472Y08575D01*
X04498Y08602D01*
X04505Y08586D01*
X04575Y08516D01*
X04666Y08478D01*
X04765Y08478D01*
X05551Y08478D01*
X05581Y08491D01*
X05581Y00545D01*
X05581Y00545D01*
G37*
G54D19*
X05581Y00545D02*
X03482Y00545D01*
X03482Y08676D01*
X03109Y09049D01*
X02736Y08676D01*
X02773Y08572D01*
X03009Y08485D01*
X03259Y08495D01*
X03445Y08572D01*
X03482Y08676D01*
X03482Y00545D01*
X03155Y00545D01*
X03155Y00576D01*
X03155Y01362D01*
X03117Y01454D01*
X03047Y01524D01*
X02956Y01562D01*
X02857Y01562D01*
X02463Y01562D01*
X02459Y01561D01*
X02456Y01562D01*
X02357Y01562D01*
X01963Y01562D01*
X01871Y01524D01*
X01801Y01454D01*
X01763Y01363D01*
X01763Y01264D01*
X01763Y00545D01*
X01655Y00545D01*
X01655Y00576D01*
X01655Y01362D01*
X01617Y01454D01*
X01547Y01524D01*
X01456Y01562D01*
X01357Y01562D01*
X00963Y01562D01*
X00959Y01561D01*
X00956Y01562D01*
X00857Y01562D01*
X00734Y01562D01*
X00734Y06042D01*
X01755Y04527D01*
X01805Y04406D01*
X01925Y04286D01*
X02081Y04221D01*
X02250Y04221D01*
X02406Y04285D01*
X02526Y04405D01*
X02591Y04561D01*
X02591Y04730D01*
X02527Y04886D01*
X02428Y04985D01*
X01431Y06464D01*
X01431Y09052D01*
X01466Y09052D01*
X01466Y08993D01*
X01564Y08757D01*
X01744Y08576D01*
X01980Y08477D01*
X02236Y08477D01*
X02472Y08575D01*
X02650Y08753D01*
X02665Y08747D01*
X02981Y09064D01*
X03234Y09066D01*
X03553Y08747D01*
X03568Y08753D01*
X03744Y08576D01*
X03980Y08477D01*
X04236Y08477D01*
X04472Y08575D01*
X04498Y08602D01*
X04505Y08586D01*
X04575Y08516D01*
X04666Y08478D01*
X04765Y08478D01*
X05551Y08478D01*
X05581Y08491D01*
X05581Y00545D01*
M02*
