G04 (created by PCBNEW-RS274X (2012-apr-16-27)-stable) date Wed 23 Oct 2013 00:02:43 BST*
G01*
G70*
G90*
%MOIN*%
G04 Gerber Fmt 3.4, Leading zero omitted, Abs format*
%FSLAX34Y34*%
G04 APERTURE LIST*
%ADD10C,0.020000*%
%ADD11C,0.015000*%
%ADD12R,0.025000X0.045000*%
%ADD13R,0.039400X0.078700*%
%ADD14R,0.060000X0.060000*%
%ADD15C,0.060000*%
%ADD16R,0.141700X0.063000*%
%ADD17C,0.137800*%
%ADD18C,0.031500*%
%ADD19C,0.010000*%
G04 APERTURE END LIST*
G54D10*
G54D11*
X05947Y-00073D02*
X05947Y10163D01*
X00435Y-00073D02*
X00435Y09770D01*
X00829Y10163D02*
X05947Y10163D01*
X00435Y09770D02*
X00828Y10163D01*
X00435Y-00073D02*
X05947Y-00073D01*
G54D12*
X01750Y02450D03*
X02350Y02450D03*
X01750Y01750D03*
X02350Y01750D03*
G54D13*
X02750Y00650D03*
X02250Y00650D03*
X01250Y00650D03*
X00750Y00650D03*
G54D14*
X05175Y08785D03*
G54D15*
X04175Y08785D03*
X03175Y08785D03*
G54D16*
X04288Y04455D03*
X02488Y04455D03*
G54D17*
X04766Y02683D03*
X04766Y06620D03*
G54D18*
X04288Y04455D02*
X04288Y05523D01*
X04288Y05523D02*
X03781Y06030D01*
X03781Y06030D02*
X03781Y07391D01*
X03781Y07391D02*
X05175Y08785D01*
X02750Y00650D02*
X02750Y02045D01*
X02750Y02045D02*
X04288Y03583D01*
X04288Y03583D02*
X04288Y04455D01*
X00750Y07920D02*
X02600Y09770D01*
X00750Y00650D02*
X00750Y07920D01*
X04190Y09770D02*
X05175Y08785D01*
X02600Y09770D02*
X04190Y09770D01*
X02350Y02450D02*
X02350Y06960D01*
X02350Y06960D02*
X04175Y08785D01*
X02350Y01750D02*
X02350Y02450D01*
X01700Y01500D02*
X01750Y01750D01*
X02250Y00650D02*
X02250Y00950D01*
X02250Y00950D02*
X01700Y01500D01*
X01250Y03077D02*
X01250Y03150D01*
X01250Y02950D02*
X01250Y03077D01*
X01750Y02450D02*
X01250Y02450D01*
X01250Y06860D02*
X03175Y08785D01*
X01250Y02450D02*
X01250Y02950D01*
X01250Y00650D02*
X01250Y03150D01*
X01250Y03077D02*
X01250Y06860D01*
G54D10*
G36*
X05622Y00252D02*
X03196Y00252D01*
X03196Y00306D01*
X03197Y00538D01*
X03197Y00762D01*
X03196Y00994D01*
X03196Y01093D01*
X03158Y01184D01*
X03088Y01254D01*
X02996Y01292D01*
X02862Y01293D01*
X02800Y01231D01*
X02800Y00700D01*
X03135Y00700D01*
X03197Y00762D01*
X03197Y00538D01*
X03135Y00600D01*
X02850Y00600D01*
X02800Y00600D01*
X02700Y00600D01*
X02700Y00700D01*
X02700Y00750D01*
X02700Y01231D01*
X02650Y01281D01*
X02650Y01348D01*
X02686Y01384D01*
X02724Y01475D01*
X02724Y01574D01*
X02724Y01591D01*
X02726Y01594D01*
X02757Y01750D01*
X02757Y02450D01*
X02757Y03163D01*
X03499Y03905D01*
X03531Y03891D01*
X04176Y03890D01*
X04238Y03952D01*
X04238Y04355D01*
X04238Y04405D01*
X04238Y04505D01*
X04238Y04555D01*
X04238Y04958D01*
X04176Y05020D01*
X03635Y05020D01*
X03635Y07190D01*
X04726Y08282D01*
X04734Y08274D01*
X04826Y08236D01*
X05063Y08235D01*
X05125Y08297D01*
X05125Y08680D01*
X05209Y08764D01*
X05209Y09032D01*
X05125Y09032D01*
X05125Y09273D01*
X05063Y09335D01*
X04826Y09334D01*
X04734Y09296D01*
X04664Y09226D01*
X04643Y09176D01*
X04225Y09594D01*
X04225Y09820D01*
X03338Y09820D01*
X03338Y09426D01*
X02973Y09426D01*
X02550Y09003D01*
X02550Y08736D01*
X00962Y07148D01*
X00874Y07016D01*
X00853Y06913D01*
X00760Y06820D01*
X00760Y09630D01*
X00968Y09838D01*
X05622Y09838D01*
X05622Y09290D01*
X05616Y09296D01*
X05524Y09334D01*
X05287Y09335D01*
X05225Y09273D01*
X05225Y08885D01*
X05225Y08835D01*
X05225Y08735D01*
X05225Y08685D01*
X05225Y08297D01*
X05287Y08235D01*
X05524Y08236D01*
X05616Y08274D01*
X05622Y08280D01*
X05622Y07007D01*
X05562Y07151D01*
X05298Y07415D01*
X04953Y07559D01*
X04580Y07559D01*
X04235Y07416D01*
X03971Y07152D01*
X03827Y06807D01*
X03827Y06434D01*
X03970Y06089D01*
X04234Y05825D01*
X04579Y05681D01*
X04952Y05681D01*
X05297Y05824D01*
X05561Y06088D01*
X05622Y06235D01*
X05622Y03070D01*
X05562Y03214D01*
X05298Y03478D01*
X05246Y03500D01*
X05246Y04343D01*
X05246Y04567D01*
X05245Y04721D01*
X05245Y04820D01*
X05207Y04911D01*
X05137Y04981D01*
X05045Y05019D01*
X04400Y05020D01*
X04338Y04958D01*
X04338Y04505D01*
X05184Y04505D01*
X05246Y04567D01*
X05246Y04343D01*
X05184Y04405D01*
X04338Y04405D01*
X04338Y03952D01*
X04400Y03890D01*
X05045Y03891D01*
X05137Y03929D01*
X05207Y03999D01*
X05245Y04090D01*
X05245Y04189D01*
X05246Y04343D01*
X05246Y03500D01*
X04953Y03622D01*
X04580Y03622D01*
X04235Y03479D01*
X03971Y03215D01*
X03827Y02870D01*
X03827Y02497D01*
X03970Y02152D01*
X04234Y01888D01*
X04579Y01744D01*
X04952Y01744D01*
X05297Y01887D01*
X05561Y02151D01*
X05622Y02298D01*
X05622Y00252D01*
X05622Y00252D01*
G37*
G54D19*
X05622Y00252D02*
X03196Y00252D01*
X03196Y00306D01*
X03197Y00538D01*
X03197Y00762D01*
X03196Y00994D01*
X03196Y01093D01*
X03158Y01184D01*
X03088Y01254D01*
X02996Y01292D01*
X02862Y01293D01*
X02800Y01231D01*
X02800Y00700D01*
X03135Y00700D01*
X03197Y00762D01*
X03197Y00538D01*
X03135Y00600D01*
X02850Y00600D01*
X02800Y00600D01*
X02700Y00600D01*
X02700Y00700D01*
X02700Y00750D01*
X02700Y01231D01*
X02650Y01281D01*
X02650Y01348D01*
X02686Y01384D01*
X02724Y01475D01*
X02724Y01574D01*
X02724Y01591D01*
X02726Y01594D01*
X02757Y01750D01*
X02757Y02450D01*
X02757Y03163D01*
X03499Y03905D01*
X03531Y03891D01*
X04176Y03890D01*
X04238Y03952D01*
X04238Y04355D01*
X04238Y04405D01*
X04238Y04505D01*
X04238Y04555D01*
X04238Y04958D01*
X04176Y05020D01*
X03635Y05020D01*
X03635Y07190D01*
X04726Y08282D01*
X04734Y08274D01*
X04826Y08236D01*
X05063Y08235D01*
X05125Y08297D01*
X05125Y08680D01*
X05209Y08764D01*
X05209Y09032D01*
X05125Y09032D01*
X05125Y09273D01*
X05063Y09335D01*
X04826Y09334D01*
X04734Y09296D01*
X04664Y09226D01*
X04643Y09176D01*
X04225Y09594D01*
X04225Y09820D01*
X03338Y09820D01*
X03338Y09426D01*
X02973Y09426D01*
X02550Y09003D01*
X02550Y08736D01*
X00962Y07148D01*
X00874Y07016D01*
X00853Y06913D01*
X00760Y06820D01*
X00760Y09630D01*
X00968Y09838D01*
X05622Y09838D01*
X05622Y09290D01*
X05616Y09296D01*
X05524Y09334D01*
X05287Y09335D01*
X05225Y09273D01*
X05225Y08885D01*
X05225Y08835D01*
X05225Y08735D01*
X05225Y08685D01*
X05225Y08297D01*
X05287Y08235D01*
X05524Y08236D01*
X05616Y08274D01*
X05622Y08280D01*
X05622Y07007D01*
X05562Y07151D01*
X05298Y07415D01*
X04953Y07559D01*
X04580Y07559D01*
X04235Y07416D01*
X03971Y07152D01*
X03827Y06807D01*
X03827Y06434D01*
X03970Y06089D01*
X04234Y05825D01*
X04579Y05681D01*
X04952Y05681D01*
X05297Y05824D01*
X05561Y06088D01*
X05622Y06235D01*
X05622Y03070D01*
X05562Y03214D01*
X05298Y03478D01*
X05246Y03500D01*
X05246Y04343D01*
X05246Y04567D01*
X05245Y04721D01*
X05245Y04820D01*
X05207Y04911D01*
X05137Y04981D01*
X05045Y05019D01*
X04400Y05020D01*
X04338Y04958D01*
X04338Y04505D01*
X05184Y04505D01*
X05246Y04567D01*
X05246Y04343D01*
X05184Y04405D01*
X04338Y04405D01*
X04338Y03952D01*
X04400Y03890D01*
X05045Y03891D01*
X05137Y03929D01*
X05207Y03999D01*
X05245Y04090D01*
X05245Y04189D01*
X05246Y04343D01*
X05246Y03500D01*
X04953Y03622D01*
X04580Y03622D01*
X04235Y03479D01*
X03971Y03215D01*
X03827Y02870D01*
X03827Y02497D01*
X03970Y02152D01*
X04234Y01888D01*
X04579Y01744D01*
X04952Y01744D01*
X05297Y01887D01*
X05561Y02151D01*
X05622Y02298D01*
X05622Y00252D01*
G54D10*
G36*
X04246Y08785D02*
X04175Y08714D01*
X03867Y08407D01*
X03894Y08313D01*
X03991Y08279D01*
X03141Y07428D01*
X03141Y05020D01*
X02600Y05020D01*
X02538Y04958D01*
X02538Y04555D01*
X02538Y04505D01*
X02538Y04405D01*
X02538Y04355D01*
X02538Y03952D01*
X02600Y03890D01*
X02949Y03891D01*
X02157Y03098D01*
X02157Y02930D01*
X01666Y02930D01*
X01666Y03918D01*
X01731Y03891D01*
X02376Y03890D01*
X02438Y03952D01*
X02438Y04355D01*
X02438Y04405D01*
X02438Y04505D01*
X02438Y04555D01*
X02438Y04958D01*
X02376Y05020D01*
X01731Y05019D01*
X01666Y04993D01*
X01666Y06402D01*
X03752Y08490D01*
X03797Y08477D01*
X04069Y08750D01*
X04104Y08785D01*
X04175Y08856D01*
X04246Y08785D01*
X04246Y08785D01*
G37*
G54D19*
X04246Y08785D02*
X04175Y08714D01*
X03867Y08407D01*
X03894Y08313D01*
X03991Y08279D01*
X03141Y07428D01*
X03141Y05020D01*
X02600Y05020D01*
X02538Y04958D01*
X02538Y04555D01*
X02538Y04505D01*
X02538Y04405D01*
X02538Y04355D01*
X02538Y03952D01*
X02600Y03890D01*
X02949Y03891D01*
X02157Y03098D01*
X02157Y02930D01*
X01666Y02930D01*
X01666Y03918D01*
X01731Y03891D01*
X02376Y03890D01*
X02438Y03952D01*
X02438Y04355D01*
X02438Y04405D01*
X02438Y04505D01*
X02438Y04555D01*
X02438Y04958D01*
X02376Y05020D01*
X01731Y05019D01*
X01666Y04993D01*
X01666Y06402D01*
X03752Y08490D01*
X03797Y08477D01*
X04069Y08750D01*
X04104Y08785D01*
X04175Y08856D01*
X04246Y08785D01*
M02*
