G04 (created by PCBNEW-RS274X (2012-apr-16-27)-stable) date Wed 23 Oct 2013 00:02:43 BST*
G01*
G70*
G90*
%MOIN*%
G04 Gerber Fmt 3.4, Leading zero omitted, Abs format*
%FSLAX34Y34*%
G04 APERTURE LIST*
%ADD10C,0.020000*%
%ADD11C,0.015000*%
%ADD12C,0.005000*%
%ADD13C,0.012000*%
%ADD14C,0.006000*%
%ADD15C,0.004500*%
%ADD16C,0.010700*%
%ADD17C,0.004700*%
G04 APERTURE END LIST*
G54D10*
G54D11*
X05947Y-00073D02*
X05947Y10163D01*
X00435Y-00073D02*
X00435Y09770D01*
X00829Y10163D02*
X05947Y10163D01*
X00435Y09770D02*
X00828Y10163D01*
X00435Y-00073D02*
X05947Y-00073D01*
G54D12*
X01600Y02700D02*
X02500Y02700D01*
X02500Y02700D02*
X02500Y02200D01*
X02500Y02200D02*
X01600Y02200D01*
X01600Y02200D02*
X01600Y02700D01*
X01600Y02000D02*
X02500Y02000D01*
X02500Y02000D02*
X02500Y01500D01*
X02500Y01500D02*
X01600Y01500D01*
X01600Y01500D02*
X01600Y02000D01*
G54D11*
X03250Y01150D02*
X00250Y01150D01*
X03250Y00150D02*
X00250Y00150D01*
G54D13*
X03250Y01150D02*
X03250Y00150D01*
X00250Y00150D02*
X00250Y01150D01*
G54D14*
X05675Y09285D02*
X05675Y08285D01*
X05675Y08285D02*
X02675Y08285D01*
X02675Y08285D02*
X02675Y09285D01*
X02675Y09285D02*
X05675Y09285D01*
X04675Y08285D02*
X04675Y09285D01*
G54D12*
X02888Y04955D02*
X02888Y03955D01*
X02838Y04905D02*
X02838Y04005D01*
X02788Y04805D02*
X02788Y04105D01*
X02738Y04655D02*
X02738Y04255D01*
X04095Y04455D02*
X04081Y04318D01*
X04041Y04186D01*
X03976Y04064D01*
X03889Y03957D01*
X03783Y03869D01*
X03661Y03804D01*
X03530Y03763D01*
X03392Y03749D01*
X03256Y03761D01*
X03124Y03800D01*
X03001Y03864D01*
X02894Y03950D01*
X02805Y04056D01*
X02739Y04177D01*
X02697Y04309D01*
X02682Y04446D01*
X02693Y04582D01*
X02731Y04715D01*
X02794Y04837D01*
X02880Y04946D01*
X02985Y05035D01*
X03105Y05102D01*
X03237Y05145D01*
X03374Y05161D01*
X03510Y05151D01*
X03643Y05114D01*
X03766Y05051D01*
X03875Y04966D01*
X03965Y04862D01*
X04033Y04742D01*
X04077Y04611D01*
X04094Y04474D01*
X04095Y04455D01*
X02588Y05255D02*
X02588Y03655D01*
X03888Y05255D02*
X02588Y05255D01*
X03888Y03655D02*
X02588Y03655D01*
X04188Y03955D02*
X04188Y04955D01*
X03888Y03655D02*
X04188Y03955D01*
X03888Y05255D02*
X04188Y04955D01*
G54D10*
X02653Y00943D02*
X02653Y00357D01*
X02847Y00357D01*
X02847Y00943D01*
X02653Y00943D01*
X02153Y00943D02*
X02153Y00357D01*
X02347Y00357D01*
X02347Y00943D01*
X02153Y00943D01*
X01153Y00943D02*
X01153Y00357D01*
X01347Y00357D01*
X01347Y00943D01*
X01153Y00943D01*
X00653Y00943D02*
X00653Y00357D01*
X00847Y00357D01*
X00847Y00943D01*
X00653Y00943D01*
X04975Y08985D02*
X04975Y08585D01*
X05375Y08585D01*
X05375Y08985D01*
X04975Y08985D01*
X04375Y08785D02*
X04371Y08747D01*
X04359Y08709D01*
X04341Y08675D01*
X04316Y08645D01*
X04286Y08620D01*
X04252Y08601D01*
X04215Y08590D01*
X04176Y08586D01*
X04138Y08589D01*
X04101Y08600D01*
X04066Y08618D01*
X04036Y08643D01*
X04010Y08673D01*
X03992Y08707D01*
X03980Y08744D01*
X03976Y08783D01*
X03979Y08821D01*
X03990Y08858D01*
X04007Y08893D01*
X04032Y08923D01*
X04061Y08949D01*
X04095Y08968D01*
X04133Y08980D01*
X04171Y08984D01*
X04209Y08981D01*
X04247Y08971D01*
X04282Y08953D01*
X04312Y08929D01*
X04338Y08900D01*
X04357Y08866D01*
X04370Y08829D01*
X04374Y08790D01*
X04375Y08785D01*
X03375Y08785D02*
X03371Y08747D01*
X03359Y08709D01*
X03341Y08675D01*
X03316Y08645D01*
X03286Y08620D01*
X03252Y08601D01*
X03215Y08590D01*
X03176Y08586D01*
X03138Y08589D01*
X03101Y08600D01*
X03066Y08618D01*
X03036Y08643D01*
X03010Y08673D01*
X02992Y08707D01*
X02980Y08744D01*
X02976Y08783D01*
X02979Y08821D01*
X02990Y08858D01*
X03007Y08893D01*
X03032Y08923D01*
X03061Y08949D01*
X03095Y08968D01*
X03133Y08980D01*
X03171Y08984D01*
X03209Y08981D01*
X03247Y08971D01*
X03282Y08953D01*
X03312Y08929D01*
X03338Y08900D01*
X03357Y08866D01*
X03370Y08829D01*
X03374Y08790D01*
X03375Y08785D01*
G54D15*
X02021Y02369D02*
X01961Y02464D01*
X01918Y02369D02*
X01918Y02569D01*
X01986Y02569D01*
X02004Y02560D01*
X02012Y02550D01*
X02021Y02531D01*
X02021Y02502D01*
X02012Y02483D01*
X02004Y02474D01*
X01986Y02464D01*
X01918Y02464D01*
X02192Y02369D02*
X02089Y02369D01*
X02141Y02369D02*
X02141Y02569D01*
X02124Y02540D01*
X02106Y02521D01*
X02089Y02512D01*
X02021Y01669D02*
X01961Y01764D01*
X01918Y01669D02*
X01918Y01869D01*
X01986Y01869D01*
X02004Y01860D01*
X02012Y01850D01*
X02021Y01831D01*
X02021Y01802D01*
X02012Y01783D01*
X02004Y01774D01*
X01986Y01764D01*
X01918Y01764D01*
X02089Y01850D02*
X02098Y01860D01*
X02115Y01869D01*
X02158Y01869D01*
X02175Y01860D01*
X02184Y01850D01*
X02192Y01831D01*
X02192Y01812D01*
X02184Y01783D01*
X02081Y01669D01*
X02192Y01669D01*
G54D16*
X03455Y00925D02*
X03455Y00372D01*
X03475Y00307D01*
X03496Y00275D01*
X03536Y00242D01*
X03618Y00242D01*
X03659Y00275D01*
X03679Y00307D01*
X03699Y00372D01*
X03699Y00925D01*
X04127Y00242D02*
X03883Y00242D01*
X04005Y00242D02*
X04005Y00925D01*
X03964Y00827D01*
X03923Y00762D01*
X03883Y00730D01*
G54D14*
X03742Y08173D02*
X03742Y07887D01*
X03722Y07830D01*
X03684Y07792D01*
X03627Y07773D01*
X03589Y07773D01*
X03932Y07773D02*
X03932Y08173D01*
X04085Y08173D01*
X04123Y08154D01*
X04142Y08135D01*
X04161Y08097D01*
X04161Y08040D01*
X04142Y08002D01*
X04123Y07983D01*
X04085Y07964D01*
X03932Y07964D01*
X04542Y07773D02*
X04313Y07773D01*
X04427Y07773D02*
X04427Y08173D01*
X04389Y08116D01*
X04351Y08078D01*
X04313Y08059D01*
G54D17*
X03355Y05395D02*
X03346Y05385D01*
X03318Y05376D01*
X03299Y05376D01*
X03271Y05385D01*
X03252Y05404D01*
X03243Y05423D01*
X03234Y05460D01*
X03234Y05488D01*
X03243Y05526D01*
X03252Y05545D01*
X03271Y05563D01*
X03299Y05573D01*
X03318Y05573D01*
X03346Y05563D01*
X03355Y05554D01*
X03543Y05376D02*
X03431Y05376D01*
X03487Y05376D02*
X03487Y05573D01*
X03468Y05545D01*
X03449Y05526D01*
X03431Y05516D01*
M02*
